<svg version="1.1" xmlns="http://www.w3.org/2000/svg" viewBox="0 0 1389.961914384985 630" width="1389.961914384985" height="630">
  <!-- svg-source:excalidraw -->
  
  <defs>
    <style class="style-fonts">
      @font-face {
        font-family: "Virgil";
        src: url("https://excalidraw.com/Virgil.woff2");
      }
      @font-face {
        font-family: "Cascadia";
        src: url("https://excalidraw.com/Cascadia.woff2");
      }
    </style>
    
  </defs>
  <rect x="0" y="0" width="1389.961914384985" height="630" fill="#ffffff"></rect><g stroke-linecap="round"><g transform="translate(127 566) rotate(0 588.5548163220265 4.950467354292414)"><path d="M0.08 -0.04 C321.26 -2.25, 643.26 1.38, 1176.71 10.57 M0.22 -0.05 C451.03 6.74, 901.65 11.17, 1177.03 10.11" stroke="#1e1e1e" stroke-width="2" fill="none"></path></g></g><mask></mask><g transform="translate(643 585) rotate(0 30.97916603088379 17.5)"><text x="0" y="0" font-family="Virgil, Segoe UI Emoji" font-size="28px" fill="#1e1e1e" text-anchor="start" style="white-space: pre;" direction="ltr" dominant-baseline="text-before-edge">Time</text></g><g stroke-linecap="round"><g transform="translate(1304 577) rotate(0 -3.639042620365217 -3.986944252943431)"><path d="M-0.62 0.8 C-2.42 -1.88, -3.13 -4.93, -7.79 -8.39 M0.51 0.36 C-2.06 -2.49, -4.56 -5.54, -6.43 -8.78" stroke="#1e1e1e" stroke-width="2" fill="none"></path></g></g><mask></mask><g stroke-linecap="round"><g transform="translate(1303 576) rotate(0 -2.5450455423597305 5.058492046713582)"><path d="M-0.37 0.73 C-0.49 2.74, -3.35 5.25, -5.12 9.97 M0.03 0.15 C-1.38 1.67, -1.53 4.05, -4.69 8.59" stroke="#1e1e1e" stroke-width="2" fill="none"></path></g></g><mask></mask><g stroke-linecap="round" transform="translate(165 271) rotate(0 5 24)"><path d="M0 0 C0 0, 0 0, 0 0 M0 0 C0 0, 0 0, 0 0 M-1.23 12.2 C4.69 7.24, 6.49 3.88, 9.42 -0.7 M-0.14 12.17 C3.2 7.49, 7.06 4.2, 10.27 0.53 M1.4 23.09 C4.06 19.64, 5.88 15.1, 8.89 11.42 M0.16 24.06 C3.46 19.93, 8.07 15.47, 9.63 13.21 M-0.61 37.78 C3.86 33.14, 6.17 29.91, 10.49 26.35 M-0.25 37.42 C2.74 33.49, 3.85 31.23, 10.68 24.25 M1.87 47.35 C2.86 46.53, 4.82 42.65, 10.62 36.69 M0.1 47.71 C2.61 45.77, 4.62 42.96, 9.8 37.41 M-0.37 47.68 C-0.37 47.68, -0.37 47.68, -0.37 47.68 M-0.37 47.68 C-0.37 47.68, -0.37 47.68, -0.37 47.68 M10.04 47.81 C8.11 42.6, 3.57 39.9, -0.55 38.76 M10.79 46.89 C7.19 42.93, 2.89 40.73, -0.15 37.12 M11.71 37.27 C6.87 32.43, 3.57 28.92, 0.06 26.75 M11.31 36.32 C8.52 34.04, 6.89 32.26, -0.19 27.59 M9.61 26.31 C7.83 23.25, 3.14 21.21, -0.61 17.19 M11.4 25.69 C7.61 22.68, 4.45 20, 0.66 16.3 M11.67 14.32 C6.95 11.79, 2.75 8.11, -0.07 7.09 M11.05 14.71 C7.29 11.87, 3.82 8.29, -0.38 5.48 M10.13 4.5 C8.68 3.6, 7.31 1.39, 1.58 -3.14 M10.61 4.55 C8.12 1.19, 5.04 -0.7, 2.31 -3.39" stroke="#ffc9c9" stroke-width="1" fill="none"></path><path d="M0.83 0.37 C3.01 0.47, 7.29 0.87, 9.12 0.9 M-0.39 -0.26 C4.13 0.17, 7.56 -0.42, 10.3 -0.3 M9.3 1.72 C10.99 12.03, 10.18 25.95, 8.05 49.46 M10.39 0.87 C10.55 10.51, 9.85 21.24, 9.25 48.64 M9.71 48.28 C5.71 47.5, 1.92 48.11, -0.66 48.4 M10.22 47.69 C7.27 47.67, 4.78 47.65, 0.01 48.48 M0.87 49.39 C1.18 37.6, 0.72 28.46, 0.18 -0.46 M0.34 47.35 C-0.17 32.72, 0.22 16.82, -0.55 0.83" stroke="#1e1e1e" stroke-width="2" fill="none"></path></g><g stroke-linecap="round" transform="translate(166 335) rotate(0 5 24)"><path d="M0 0 C0 0, 0 0, 0 0 M0 0 C0 0, 0 0, 0 0 M1.32 11.19 C3.15 7.91, 5.71 3.68, 10.9 1.15 M-0.03 11.35 C4.12 7.76, 6.98 4.35, 10.91 -0.37 M0.72 23.44 C2.32 19.13, 5.27 15.55, 11.31 13.95 M-0.19 24.22 C3.48 20.86, 5.37 18.12, 9.7 13.02 M1.32 36.2 C5.1 31.25, 8.08 29.1, 8.91 23.55 M0.36 36.16 C2.9 32.2, 7.58 27.74, 9.59 25.12 M0.76 49.06 C4 43.64, 7.74 39.94, 9.21 38.21 M0.52 48.31 C3.51 44.51, 6.23 41.66, 9.67 36.92 M-0.37 47.68 C-0.37 47.68, -0.37 47.68, -0.37 47.68 M-0.37 47.68 C-0.37 47.68, -0.37 47.68, -0.37 47.68 M12.25 46.25 C9.37 45.01, 5.06 43.66, 1.07 38.27 M10.94 46.23 C7.91 45.12, 5.53 42.04, 1 37.58 M11 36.03 C8.56 33.39, 4.12 30.41, -0.87 26.24 M10.74 36.03 C8.25 33.55, 4.15 31.42, 0.42 26.78 M11.12 26.17 C7.03 24.64, 4.42 21.54, 0.04 17.25 M10.65 25.38 C8.22 23.4, 6.78 21.69, 0.65 16.47 M10.68 14.93 C6.09 10.92, 2.33 9.18, 0.92 5.41 M10.94 15 C7.25 11.2, 2.4 7.88, -0.28 5.15 M10.48 5.2 C8.36 2.32, 4.62 -0.53, 3.27 -2.48 M11.23 3.92 C9.17 2.93, 6.46 0.22, 3.01 -3.03" stroke="#ffc9c9" stroke-width="1" fill="none"></path><path d="M-0.69 0.54 C3.59 0.91, 6.54 0.86, 10.63 0.07 M0.5 0.19 C3.58 -0.34, 6.87 -0.25, 9.85 0.48 M10.53 -0.94 C9.55 11.58, 7.88 24.58, 8.22 49.45 M10.2 0.37 C9.69 13.01, 9.43 24.71, 10.72 47.63 M9.43 47.47 C6.04 48.1, 2.71 48.43, -0.26 47.61 M10 47.6 C6.56 47.52, 2.63 48.42, -0.4 48.19 M1.36 48.18 C0.69 34.96, -0.03 18.21, 0.45 1.98 M0.3 48.2 C0.53 38.16, -0.72 29.59, -0.67 -0.14" stroke="#1e1e1e" stroke-width="2" fill="none"></path></g><g stroke-linecap="round" transform="translate(165 406) rotate(0 5 24)"><path d="M0 0 C0 0, 0 0, 0 0 M0 0 C0 0, 0 0, 0 0 M-0.29 11.76 C2.09 7.68, 6.82 5.79, 11.29 -0.58 M0.5 11.9 C3.12 8.87, 7.08 4.15, 10.79 0.57 M-0.75 22.69 C1.32 20.13, 6.05 20.01, 9.85 12.56 M0.67 24.06 C2.78 21.15, 5.78 17.6, 10.73 12.6 M1.05 35.94 C3.62 34.16, 5.78 27.06, 11.08 24.81 M-0.8 36.52 C3.95 31.97, 6.72 28.4, 10.71 25.52 M0.57 47.65 C3.18 45.16, 4.19 43.91, 10.6 35.98 M0.34 48.02 C2.32 46, 4.54 42.81, 10.89 37.36 M-0.37 47.68 C-0.37 47.68, -0.37 47.68, -0.37 47.68 M-0.37 47.68 C-0.37 47.68, -0.37 47.68, -0.37 47.68 M11.82 47.11 C6.06 44.53, 3.82 40.69, -0.6 37.45 M10.35 47.25 C7.24 43.45, 5.22 41.15, 0.39 38.12 M11.84 36.12 C6.68 32.5, 1.83 28.57, 0.2 27.92 M11.39 36.23 C7.13 33.9, 4.47 30.25, 0.08 26.45 M9.76 27.03 C6.26 23.22, 3.23 20.07, -1.02 17.55 M10.48 25.3 C7.99 22.61, 4.72 19.95, 0.87 16.87 M10.2 14.49 C7.84 13.96, 6.18 9.97, 1.18 6.29 M11.15 14.62 C7.44 12.29, 4.81 9.59, 0.38 5.4 M10.97 4.62 C7.32 1.89, 6.42 0.31, 1.94 -3.18 M11.24 4.71 C7.8 1.36, 5.74 -0.68, 2.8 -2.72" stroke="#ffc9c9" stroke-width="1" fill="none"></path><path d="M-0.12 0.94 C2.48 0.84, 7.36 0.01, 10.28 -0.77 M0.3 -0.4 C2.78 -0.34, 4.81 0.44, 9.7 -0.17 M9.72 0.02 C8.17 19.98, 8.35 38.48, 9.02 48.77 M9.5 0.97 C9.34 19.21, 10.81 36.76, 10.31 47.71 M9.36 48.08 C6.06 48.35, 3.17 47.55, 0.69 48.44 M10.26 47.58 C7.64 48.4, 4.86 48.11, 0.03 48.22 M0.9 49.62 C-0.15 29.8, 0.12 14.5, -1.99 0.69 M0.7 47.78 C-0.7 37.56, -0.81 25.32, 0.73 0.42" stroke="#1e1e1e" stroke-width="2" fill="none"></path></g><g stroke-linecap="round" transform="translate(166 474) rotate(0 5 24)"><path d="M0 0 C0 0, 0 0, 0 0 M0 0 C0 0, 0 0, 0 0 M-1.07 11.37 C3.02 10.27, 6 5.56, 10.9 -0.36 M-0.23 12.61 C2.6 9.14, 4.74 7.5, 10.1 0.21 M-0.95 22.74 C4.08 22.45, 5.16 18.14, 10.06 11.84 M-0.22 24.53 C2.94 20.74, 7.11 16.7, 10.53 13.5 M0 38.42 C1.02 32.57, 5.9 30.72, 11.33 26.04 M0.18 36.32 C1.38 34.7, 4.72 32.55, 9.81 24.92 M0.78 48.01 C2.91 45.49, 7.83 39.18, 9.46 36.81 M-0.04 48.73 C3 44.65, 7.37 41.47, 9.77 37.09 M-0.37 47.68 C-0.37 47.68, -0.37 47.68, -0.37 47.68 M-0.37 47.68 C-0.37 47.68, -0.37 47.68, -0.37 47.68 M10.01 47.94 C8.89 45.14, 4.53 41.99, 0.35 37.75 M10.42 46.3 C9.46 44.93, 6.68 43.58, 0.85 37.76 M10.62 35.94 C6.64 32.81, 4.71 31.89, 0.44 26.79 M10.37 36.77 C8.09 33.5, 4.92 30.72, 0.65 27.21 M9.96 26.38 C7.1 23.42, 2.45 20.61, 0.4 16.04 M11.23 25.48 C8.47 23.18, 5.9 21.15, -0.06 16.38 M10.49 16.27 C8.41 11.85, 5.55 10.01, -0.34 6.07 M10.19 14.67 C7.07 11.53, 4.58 9.03, 0.33 5.62 M9.88 4.08 C8.44 2.05, 3.99 -1.37, 2.83 -1.94 M10.61 3.82 C9.45 2.67, 7.43 1.41, 2.23 -2.94" stroke="#ffc9c9" stroke-width="1" fill="none"></path><path d="M-0.88 0.9 C4.17 -0.03, 7.36 -0.87, 9.48 1 M0.3 -0.3 C3.24 0.56, 6.48 -0.09, 10.43 0.13 M8.05 1.46 C8.16 13.6, 8.95 25.06, 11.74 48.4 M9.25 0.64 C10.48 15.81, 10.08 32.07, 10.28 47.43 M9.34 48.4 C7.27 47.62, 5.75 48.45, -0.63 48.01 M10.01 48.48 C7.4 48.11, 5.61 48.13, 0.35 48.34 M0.18 47.54 C0.23 35.14, -2.21 19.01, -1.3 0.61 M-0.55 48.83 C-1 32.5, 0.4 17.68, 0.38 0.31" stroke="#1e1e1e" stroke-width="2" fill="none"></path></g><g transform="translate(10 278) rotate(0 43.375 17.5)"><text x="43.375" y="0" font-family="Virgil, Segoe UI Emoji" font-size="28px" fill="#1e1e1e" text-anchor="middle" style="white-space: pre;" direction="ltr" dominant-baseline="text-before-edge">Node 1</text></g><g transform="translate(10.625 341.5) rotate(0 49.57291793823242 17.5)"><text x="49.57291793823242" y="0" font-family="Virgil, Segoe UI Emoji" font-size="28px" fill="#1e1e1e" text-anchor="middle" style="white-space: pre;" direction="ltr" dominant-baseline="text-before-edge">Node 2</text></g><g transform="translate(14.625 418.5) rotate(0 49.13541793823242 17.5)"><text x="49.13541793823242" y="0" font-family="Virgil, Segoe UI Emoji" font-size="28px" fill="#1e1e1e" text-anchor="middle" style="white-space: pre;" direction="ltr" dominant-baseline="text-before-edge">Node 3</text></g><g transform="translate(16.625 485.5) rotate(0 48.5625 17.5)"><text x="0" y="0" font-family="Virgil, Segoe UI Emoji" font-size="28px" fill="#1e1e1e" text-anchor="start" style="white-space: pre;" direction="ltr" dominant-baseline="text-before-edge">Node 4</text></g><g stroke-linecap="round"><g transform="translate(135 225) rotate(0 92.85913829505444 0.28591240848800226)"><path d="M-1.59 1.21 C73.91 -1.72, 152.15 -2.31, 187.3 1.72" stroke="#2f9e44" stroke-width="2.5" fill="none" stroke-dasharray="8 10"></path></g></g><mask></mask><g transform="translate(178.98958206176758 198.5) rotate(0 45.01041793823242 10)"><text x="45.01041793823242" y="0" font-family="Virgil, Segoe UI Emoji" font-size="16px" fill="#2f9e44" text-anchor="middle" style="white-space: pre;" direction="ltr" dominant-baseline="text-before-edge">Node Start</text></g><g stroke-linecap="round" transform="translate(554.0069643499883 272) rotate(0 5 24)"><path d="M0 0 C0 0, 0 0, 0 0 M0 0 C0 0, 0 0, 0 0 M1.42 13.31 C2.14 9.41, 4.54 6.15, 10.93 0.83 M-0.3 12.32 C4 8.21, 6.91 5.57, 10.29 0.62 M-0.98 22.9 C3.41 21.26, 6.02 19.68, 8.77 11.75 M-0.35 24.38 C3.16 21.93, 4.83 18.47, 10.56 12.78 M-1.49 38.34 C2.75 32.75, 4.33 30.44, 10.55 24.4 M-1.01 36.96 C3.33 33.96, 5.08 30.29, 10.22 24.15 M0.29 47.07 C3.73 46.24, 6.42 43.79, 10.97 36.07 M1.2 48.37 C2.98 44.45, 6.76 42.4, 10.03 37.33 M-0.37 47.68 C-0.37 47.68, -0.37 47.68, -0.37 47.68 M-0.37 47.68 C-0.37 47.68, -0.37 47.68, -0.37 47.68 M9.73 46.05 C7.76 45.05, 4.93 41.25, -0.1 38.73 M11.02 46.6 C7.62 43.63, 5.08 41.67, 0.62 37.16 M10.64 37.06 C5.41 33.75, 2.61 28.57, -0.19 26.33 M11.25 36.28 C8.75 34.35, 5.16 31.53, 0.28 26.77 M11.52 25.23 C9.02 23.77, 4.71 21.13, 0.27 17.13 M10.32 24.97 C8.47 22.91, 5.82 20.88, 0.81 16.57 M11.82 15.47 C6.8 11.58, 4.52 10.2, -0.91 6.99 M11.5 14.77 C7.42 11.72, 2.86 8.11, 0.77 6.11 M10.28 4.3 C7.54 2.43, 6.33 1.3, 3.32 -3.06 M10.84 4.26 C7.64 2.01, 5.43 -0.48, 2.41 -2.68" stroke="#ffc9c9" stroke-width="1" fill="none"></path><path d="M-0.89 0.73 C2.52 0.31, 6.89 0.13, 10.37 -0.5 M0.36 -0.19 C4.13 -0.21, 8.08 -0.35, 9.73 -0.32 M9.47 -0.78 C11.07 15.65, 8.42 29.55, 8.41 49.03 M9.2 0.38 C10.07 10.8, 10.71 21.42, 10.09 48.45 M10.23 48.99 C5.19 48.32, 1.73 48.28, 0.2 48.7 M9.67 47.93 C7.58 48.29, 4.63 48.24, 0.06 48.43 M0.89 48.75 C-2.08 33.57, -0.47 22.42, 1.12 1.17 M0.25 48.37 C0.08 32.82, 0 20.08, -0.53 -0.27" stroke="#1e1e1e" stroke-width="2" fill="none"></path></g><g stroke-linecap="round" transform="translate(555.0069643499883 336) rotate(0 5 24)"><path d="M0 0 C0 0, 0 0, 0 0 M0 0 C0 0, 0 0, 0 0 M-0.14 11.82 C2.2 8.44, 4.76 7.74, 10.59 -1.06 M0.8 11.86 C4.43 8.44, 7.42 3.96, 10.16 0.09 M1.05 24.09 C5.28 20.83, 6.83 14.17, 9.44 13.58 M0.71 24.75 C2.22 21.55, 5.34 18.84, 9.85 12.88 M-0.02 35.95 C1.91 33.25, 6.22 29.39, 9.93 23.58 M0.3 37.42 C3.15 32.59, 7.73 27.13, 9.9 25.5 M1.3 49.18 C4.77 45.93, 7.73 39.89, 10.16 35.4 M0.06 47.69 C3.92 45.4, 6.09 41.72, 10.49 36.36 M-0.37 47.68 C-0.37 47.68, -0.37 47.68, -0.37 47.68 M-0.37 47.68 C-0.37 47.68, -0.37 47.68, -0.37 47.68 M10.8 47.74 C8.2 44, 4.69 42.76, 0.29 36.69 M10.68 46.27 C7.3 43.55, 3.29 39.44, 1.05 37.26 M9.58 37.37 C7.28 32.67, 2.92 29.09, -0.35 27.84 M11.47 36.69 C7.54 33.63, 4.9 30.83, 0.06 26.91 M11.78 26.1 C6.09 22.26, 2.53 19.1, -0.48 15.2 M10.98 25.22 C8.33 23.02, 6.11 21.01, 0.44 15.87 M10.13 14.57 C8.31 13.68, 3.81 11.19, 1.13 5.4 M11.23 15.16 C8.29 13, 7 11.57, 0 5.76 M9.74 4.42 C9.04 3.7, 8.22 1.16, 2.84 -2.81 M10.42 4.33 C7.66 1.37, 4.1 -1.22, 2.21 -2.76" stroke="#ffc9c9" stroke-width="1" fill="none"></path><path d="M-0.49 0.39 C4.6 0.13, 7.83 -0.57, 10.97 -0.75 M0.16 -0.15 C3.78 -0.25, 7.01 -0.28, 10.04 -0.33 M11.39 0.88 C8.62 16.36, 8.29 33.72, 8.32 48.06 M10.06 0.43 C10.31 19.72, 9.71 38.52, 10.81 48.09 M9 48.34 C6.58 48.4, 4.66 48.8, -0.22 47.45 M10.37 48.21 C6.36 48.14, 2.39 48.42, -0.2 48.1 M-1.99 46.06 C-0.59 37.11, 0.91 28.57, -0.03 0.44 M0.18 47.15 C-0.02 38.75, -0.66 27.76, -0.17 -0.75" stroke="#1e1e1e" stroke-width="2" fill="none"></path></g><g stroke-linecap="round" transform="translate(554.0069643499883 407) rotate(0 5 24)"><path d="M0 0 C0 0, 0 0, 0 0 M0 0 C0 0, 0 0, 0 0 M0.09 11.06 C4.44 8.34, 8.08 1.86, 11.59 -0.9 M0.58 12.83 C3.21 8.67, 6.59 4.11, 11.4 -0.7 M1.28 25.25 C1.05 20.56, 3.9 19.88, 9.06 11.53 M-0.14 24.19 C3.99 20.17, 6.62 16.43, 10.03 12.18 M-1.23 36.84 C4.14 31.81, 7.63 26.27, 11.45 23.31 M-0.9 37.14 C2.91 32.4, 5.84 30, 10.52 24.67 M1.46 49.65 C3.31 44.75, 4.74 41.51, 10.45 38.18 M1.02 48.88 C3.48 45, 7.17 40.33, 10.94 37.23 M-0.37 47.68 C-0.37 47.68, -0.37 47.68, -0.37 47.68 M-0.37 47.68 C-0.37 47.68, -0.37 47.68, -0.37 47.68 M11.04 46.6 C7.93 45.77, 5.78 41.53, 1.38 37.91 M11.25 47.02 C8.49 43.88, 6.18 41.6, 0.72 37.58 M11 35.86 C6.69 32.32, 2.75 30.54, 0.03 27.81 M10.54 36.19 C7.56 33.23, 4.13 30.59, 0.95 27.41 M10.26 25.88 C7.91 23.86, 4.29 19.44, -0.38 15.39 M10.93 25.44 C9.19 23.8, 6.64 21.22, 0.09 16.95 M11.26 16.16 C6.18 13.08, 4.69 8.42, -1.14 7.18 M10.5 14.89 C8.47 12.87, 4.87 10.06, -0.41 5.5 M10.72 5.2 C9.25 2.04, 6.33 0.16, 3.55 -2.72 M10.97 4.26 C8.44 2.51, 5.92 0.42, 2.73 -3.34" stroke="#ffc9c9" stroke-width="1" fill="none"></path><path d="M0.87 0.2 C4.1 -0.53, 8.42 -0.79, 10.64 0.72 M0.14 -0.29 C2.36 -0.29, 5.29 -0.3, 10.2 -0.13 M8.74 0.01 C8.75 13.55, 8.65 25.09, 11.93 46.41 M10.7 0.68 C10.12 16.68, 10.84 32.54, 9.77 48.23 M9.35 48.3 C6.21 48.73, 1.8 47.48, 0.83 47.33 M10.19 48.15 C7.19 48.48, 4.07 48.14, -0.43 48.22 M-0.38 47.41 C1.6 32.97, 0.45 16.04, -1.84 0.51 M0.1 48.74 C-0.62 31.56, -0.26 14.9, -0.42 0.17" stroke="#1e1e1e" stroke-width="2" fill="none"></path></g><g stroke-linecap="round" transform="translate(555.0069643499883 475) rotate(0 5 24)"><path d="M0 0 C0 0, 0 0, 0 0 M0 0 C0 0, 0 0, 0 0 M0.43 12.91 C3.11 7.62, 7.11 4.33, 11.19 1.3 M-0.2 12.69 C2.52 8.71, 6.67 4.56, 10 0.39 M-1.07 23.07 C2.48 21.42, 5.06 15.98, 10.7 13.64 M0.71 24.1 C3.9 19.78, 7.91 14.67, 10.79 12.87 M0.05 36.47 C2.05 32.73, 6.12 29.53, 10.41 25.91 M-0.27 36.22 C3.36 33.09, 7.85 27.82, 9.66 25.21 M1.13 47.39 C3.87 42.46, 7.78 41.07, 10.79 35.9 M0.19 48.65 C2.91 44.9, 5.69 43.08, 10.68 36.33 M-0.37 47.68 C-0.37 47.68, -0.37 47.68, -0.37 47.68 M-0.37 47.68 C-0.37 47.68, -0.37 47.68, -0.37 47.68 M10.46 47.91 C7.03 42.54, 4.31 40.45, -0.23 37.23 M11.19 46.34 C9.34 44.52, 6.78 42.91, 0.75 37.05 M10.38 35.52 C6.2 33.51, 2.57 30, 0.37 28.24 M10.85 35.95 C6.86 32.77, 3.93 29.95, 0.11 27.54 M10.84 26.31 C6.59 21.34, 3.17 18.46, -1.04 16.72 M11.38 25.75 C8.45 22.82, 5.56 21.68, 0.52 16.1 M9.66 16.17 C8.81 12.19, 3.7 11.5, -0.22 6.64 M11.34 15.29 C7.2 11.96, 3.38 8.73, 0.21 5.15 M11.63 4.16 C8.62 2.27, 6.8 0.17, 2.25 -3.57 M10.71 4.54 C8.05 2.33, 6.13 -0.37, 2.61 -3.33" stroke="#ffc9c9" stroke-width="1" fill="none"></path><path d="M0.37 -0.5 C4.35 -0.77, 7.41 0.7, 9.63 0.31 M-0.27 -0.32 C2.75 -0.27, 5.62 -0.07, 9.8 0.35 M8.41 1.03 C8.02 16.57, 11.63 31.43, 10.76 48.11 M10.09 0.45 C11.14 16.58, 10.1 33.2, 10.99 47 M10.2 48.7 C6.44 47.48, 4.14 47.36, -0.14 48.73 M10.06 48.43 C6.38 48.13, 2.73 48.25, 0.19 47.5 M1.12 49.17 C0.06 38.69, -1.75 29.01, 0.74 0.36 M-0.53 47.73 C-0.22 36.93, -0.47 27.53, 0.74 0.41" stroke="#1e1e1e" stroke-width="2" fill="none"></path></g><g stroke-linecap="round" transform="translate(942.0069643499883 273) rotate(0 5 24)"><path d="M0 0 C0 0, 0 0, 0 0 M0 0 C0 0, 0 0, 0 0 M1.44 11.11 C4.01 9.33, 6.17 2.22, 11.47 -0.03 M-0.41 11.69 C4.34 7.14, 7.11 3.57, 11.1 0.68 M0.31 23.57 C2.92 21.08, 3.93 19.83, 10.33 11.89 M0.08 23.94 C2.05 21.92, 4.28 18.72, 10.63 13.27 M-1.57 36.19 C3.4 34.79, 4.04 30.43, 11.06 25.89 M-0.67 36.76 C2.65 32.51, 7.93 28.32, 9.73 24.3 M1.5 48.4 C3.05 45.2, 8.39 40.54, 9.35 36.57 M-0.08 48.55 C2.95 44.23, 7.13 41.33, 10.41 37.29 M-0.37 47.68 C-0.37 47.68, -0.37 47.68, -0.37 47.68 M-0.37 47.68 C-0.37 47.68, -0.37 47.68, -0.37 47.68 M9.82 48.29 C6.33 44.48, 3.3 41.33, -0.95 38.81 M10.55 46.56 C8.06 43.87, 4.78 41.21, 0.93 38.13 M10.27 35.75 C7.91 35.22, 6.25 31.23, 1.25 27.55 M11.22 35.88 C7.51 33.55, 4.88 30.85, 0.45 26.66 M11.09 25.95 C6.44 22.47, 5.3 20.46, -0.4 16.02 M11.43 26.07 C7.05 21.8, 4.44 19.21, 0.7 16.6 M11.4 14.51 C8.01 11.42, 4.78 10.29, -1.08 5.87 M10.68 15.23 C7.65 13.05, 4.59 9.52, -0.21 5.77 M11.11 3.84 C8.2 2.44, 4.25 -0.21, 1.52 -3.37 M10.31 4.37 C7.91 2.07, 5.62 0.34, 2.75 -3.23" stroke="#ffc9c9" stroke-width="1" fill="none"></path><path d="M-0.64 0.08 C2.62 0.46, 6.3 -0.34, 10.69 0.44 M0.26 -0.42 C2.39 0.56, 4.34 0.27, 10.03 0.22 M10.9 1.62 C10.51 17.28, 10.78 37.46, 8.01 48.69 M10.7 -0.22 C9.59 12.11, 9.48 22.41, 10.73 48.42 M10.87 47.6 C6.82 47.16, 3.68 48.39, -0.99 47.03 M10.29 47.99 C7.3 47.6, 4.5 48.24, 0.09 47.57 M-0.53 47.65 C-1.86 32.27, -0.02 19.7, 0.82 -0.68 M0.45 47.82 C-0.35 33.51, 0.44 17.19, 0.2 0.76" stroke="#1e1e1e" stroke-width="2" fill="none"></path></g><g stroke-linecap="round" transform="translate(943.0069643499883 337) rotate(0 5 24)"><path d="M0 0 C0 0, 0 0, 0 0 M0 0 C0 0, 0 0, 0 0 M0.39 13.59 C1.41 7.73, 6.29 5.88, 11.72 1.21 M0.57 11.48 C1.77 9.86, 5.11 7.72, 10.2 0.09 M0.51 23.92 C2.64 21.41, 7.57 15.1, 9.2 12.73 M-0.31 24.65 C2.74 20.57, 7.1 17.38, 9.5 13.01 M1.14 37.43 C2.71 32.16, 6.91 30.82, 11.23 26.39 M-1.02 36.92 C4.08 33.01, 6.43 28.19, 10.77 25.56 M-0.44 49.29 C3.73 45.88, 4.44 42.12, 10.38 36.89 M0 47.53 C3.34 45.65, 4.72 43.9, 10.91 36.9 M-0.37 47.68 C-0.37 47.68, -0.37 47.68, -0.37 47.68 M-0.37 47.68 C-0.37 47.68, -0.37 47.68, -0.37 47.68 M10.03 47.64 C7.17 44.68, 2.52 41.87, 0.47 37.3 M11.3 46.74 C8.54 44.44, 5.97 42.41, 0.01 37.64 M10.56 37.53 C8.48 33.11, 5.62 31.27, -0.27 27.33 M10.26 35.93 C7.14 32.79, 4.64 30.29, 0.4 26.88 M9.71 25.26 C7.87 22.67, 2.21 18.33, 0.73 17.6 M10.64 24.94 C9.16 23.46, 6.59 21.86, -0.03 16.33 M10.7 13.7 C6.17 11.43, 1.51 8.13, 0.17 6.87 M10.83 15.68 C6.93 11.43, 2.4 8.06, 0.49 5.67 M10.96 4.87 C7.39 2.52, 5.02 -0.35, 2.2 -1.97 M10.25 4.12 C8.42 2.74, 7.35 0.71, 2.73 -2.68" stroke="#ffc9c9" stroke-width="1" fill="none"></path><path d="M-0.66 0.4 C2.21 -0.4, 5.63 0.43, 9.37 0.01 M0.01 0.48 C1.81 0.27, 4.44 0.3, 10.35 0.34 M10.18 -0.46 C10.67 16.82, 8.23 30.37, 8.7 48.61 M9.45 0.83 C9.67 15.23, 11.07 31.16, 10.38 48.31 M10.2 47.15 C7.34 48.34, 2.78 46.99, -0.19 47.7 M10.11 47.54 C6.56 48.18, 2.97 47.57, 0.05 48.37 M-1.51 47.16 C0.46 37.64, 0.95 23.64, 0.33 -0.41 M-0.45 48.71 C0.13 37.31, -0.01 28.21, -0.66 0.3" stroke="#1e1e1e" stroke-width="2" fill="none"></path></g><g stroke-linecap="round" transform="translate(942.0069643499883 408) rotate(0 5 24)"><path d="M0 0 C0 0, 0 0, 0 0 M0 0 C0 0, 0 0, 0 0 M-1.2 10.79 C3.49 9.03, 6.27 7.34, 9.2 -1.11 M-0.52 12.36 C3.22 9.74, 5 6.06, 11.11 -0.01 M-0.89 25.45 C3.09 20.22, 4.57 18.04, 10.4 12.38 M-0.44 24.16 C3.63 21.34, 5.27 17.91, 10.09 12.15 M-0.52 35.72 C3.16 34.82, 6.03 32.22, 10.87 23.98 M0.46 37.1 C2.36 32.92, 6.39 30.73, 9.87 25.32 M1.3 48.77 C2.69 44.24, 6.83 40.98, 8.96 35.62 M1.23 48.03 C4.11 44.71, 8.07 40.35, 10.25 37.36 M-0.37 47.68 C-0.37 47.68, -0.37 47.68, -0.37 47.68 M-0.37 47.68 C-0.37 47.68, -0.37 47.68, -0.37 47.68 M10.68 47.69 C5.45 44.38, 2.64 39.2, -0.15 36.96 M11.28 46.91 C8.78 44.98, 5.19 42.16, 0.32 37.4 M11.56 35.86 C9.05 34.4, 4.74 31.76, 0.31 27.76 M10.35 35.6 C8.51 33.54, 5.86 31.51, 0.85 27.2 M11.86 26.1 C6.83 22.21, 4.55 20.83, -0.87 17.62 M11.53 25.4 C7.45 22.35, 2.9 18.74, 0.81 16.74 M10.18 14.92 C6.69 12.53, 5.15 11.09, 1.33 5.54 M10.89 14.86 C6.82 11.99, 4.01 8.83, 0.16 6.03 M9.8 4.64 C7.72 2.07, 6.31 1.65, 1.67 -3.78 M10.24 4.38 C8.63 1.78, 6.12 0.17, 2.63 -2.72" stroke="#ffc9c9" stroke-width="1" fill="none"></path><path d="M-0.26 -0.39 C3.77 0.4, 5.52 -0.03, 9.21 0.52 M-0.4 0.19 C2.19 0.12, 4.67 0.24, 10.05 0.23 M10.45 1.98 C8.05 18.98, 8.74 37.19, 10.4 49.39 M9.33 -0.14 C10.47 13.78, 10.12 27.02, 10.11 48.87 M10.45 48.38 C6.4 46.95, 4.6 47.62, 0.56 48.59 M10.13 48.18 C7.11 47.48, 4.08 48.28, -0.27 47.87 M0.33 49.48 C1.19 33.76, 0.69 20.46, -1.72 0.91 M0.35 47.58 C0.42 35.23, -0.44 21.25, -0.43 -0.68" stroke="#1e1e1e" stroke-width="2" fill="none"></path></g><g stroke-linecap="round" transform="translate(943.0069643499883 476) rotate(0 5 24)"><path d="M0 0 C0 0, 0 0, 0 0 M0 0 C0 0, 0 0, 0 0 M0.97 12.05 C5.48 8.58, 7.13 1.46, 9.92 0.84 M0.6 12.76 C2.22 9.34, 5.55 6.45, 10.36 0.1 M0.49 23.21 C2.29 20.68, 6.34 17.06, 9.81 11.62 M0.79 24.59 C3.46 20.07, 7.75 14.95, 9.79 13.42 M0.56 37.96 C4.26 34.5, 7.42 28.05, 10.02 23.27 M-0.76 36.38 C3.36 33.93, 5.67 30, 10.37 24.29 M-0.49 47.89 C4.17 43.92, 6.45 38.41, 11.14 35.77 M0.57 48.61 C3.1 45.79, 4.56 43.8, 10.3 36.7 M-0.37 47.68 C-0.37 47.68, -0.37 47.68, -0.37 47.68 M-0.37 47.68 C-0.37 47.68, -0.37 47.68, -0.37 47.68 M9.62 48 C7.32 43.3, 2.96 39.72, -0.32 38.47 M11.5 47.32 C7.58 44.26, 4.93 41.46, 0.1 37.54 M11.82 36.73 C6.12 32.89, 2.57 29.73, -0.45 25.83 M11.02 35.85 C8.36 33.65, 6.14 31.64, 0.47 26.5 M10.17 25.2 C8.34 24.31, 3.85 21.82, 1.16 16.03 M11.26 25.79 C8.32 23.63, 7.04 22.2, 0.04 16.39 M9.49 15.06 C8.59 14.15, 7.56 10.92, 0.72 5.86 M10.35 14.95 C6.85 11.18, 2.32 7.89, -0.09 5.93 M9.82 3.85 C7.7 2.77, 4.29 -1.54, 2.48 -3.9 M11.05 3.98 C8.99 2.7, 6.78 0.83, 2.71 -2.96" stroke="#ffc9c9" stroke-width="1" fill="none"></path><path d="M0.69 0.44 C2.78 0.05, 6.02 0.56, 9.16 0.03 M0.03 0.22 C4.31 0.3, 7.98 0.19, 10.41 0.04 M8.01 0.69 C8.81 13.9, 10.51 27.98, 9.56 46.89 M10.73 0.42 C10.06 18.7, 9.79 37.65, 9.6 48.2 M9.01 47.03 C7.67 47.74, 6.27 48.62, -0.01 48.22 M10.09 47.57 C7.97 48.41, 5.57 47.9, -0.09 47.62 M0.82 47.32 C0.25 35.19, -1.8 24.12, -0.36 -0.9 M0.2 48.76 C-0.82 30.52, -0.59 11.75, -0.93 -0.81" stroke="#1e1e1e" stroke-width="2" fill="none"></path></g><g stroke-linecap="round"><g transform="translate(517.7286673039198 219.72561736030548) rotate(0 56.33683185279369 -0.11671525520250725)"><path d="M-1.26 0.01 C27.63 0.8, 56.74 0.09, 113.93 -0.59" stroke="#1e1e1e" stroke-width="2.5" fill="none" stroke-dasharray="8 10"></path></g></g><mask></mask><g transform="translate(541.6974173039198 192.22561736030548) rotate(0 32.03125 10)"><text x="32.03125" y="0" font-family="Virgil, Segoe UI Emoji" font-size="16px" fill="#1e1e1e" text-anchor="middle" style="white-space: pre;" direction="ltr" dominant-baseline="text-before-edge">Commit 1</text></g><g stroke-linecap="round"><g transform="translate(893.4802213162184 219.28831098228693) rotate(0 68.59488563239574 -0.5216805633472177)"><path d="M-1.68 0.06 C43.43 -2.61, 83.74 -1.2, 138.87 0.39" stroke="#1e1e1e" stroke-width="2.5" fill="none" stroke-dasharray="8 10"></path></g></g><mask></mask><g transform="translate(927.9281392544508 192.78831098228693) rotate(0 35.55208206176758 10)"><text x="35.55208206176758" y="0" font-family="Virgil, Segoe UI Emoji" font-size="16px" fill="#1e1e1e" text-anchor="middle" style="white-space: pre;" direction="ltr" dominant-baseline="text-before-edge">Commit 2</text></g><g stroke-linecap="round"><g transform="translate(699.1928545901173 73) rotate(0 20.058224438558682 98.73457731172039)"><path d="M-0.96 0.46 C17.68 11.18, 123.77 32.63, 111.87 65.52 C99.97 98.42, -41.53 175.82, -72.36 197.82 M0.74 -0.35 C19.23 10.53, 123.2 30.96, 110.96 63.67 C98.72 96.38, -42.06 173.97, -72.69 195.91" stroke="#1e1e1e" stroke-width="2" fill="none"></path></g><g transform="translate(699.1928545901173 73) rotate(0 20.058224438558682 98.73457731172039)"><path d="M-53.55 172.3 C-58.77 180.62, -63.85 186.59, -71.79 197.53 M-53.32 171.2 C-59.7 178.91, -65.41 187.09, -71.99 195.69" stroke="#1e1e1e" stroke-width="2" fill="none"></path></g><g transform="translate(699.1928545901173 73) rotate(0 20.058224438558682 98.73457731172039)"><path d="M-42.6 189.67 C-51.31 192.64, -59.7 193.35, -71.79 197.53 M-42.37 188.56 C-52.1 190.93, -61.19 193.75, -71.99 195.69" stroke="#1e1e1e" stroke-width="2" fill="none"></path></g></g><mask></mask><g transform="translate(313.2604064941406 10) rotate(0 308.7395935058594 25)"><text x="308.7395935058594" y="0" font-family="Virgil, Segoe UI Emoji" font-size="20px" fill="#1e1e1e" text-anchor="middle" style="white-space: pre;" direction="ltr" dominant-baseline="text-before-edge">All nodes now commit at the same point in time</text><text x="308.7395935058594" y="25" font-family="Virgil, Segoe UI Emoji" font-size="20px" fill="#1e1e1e" text-anchor="middle" style="white-space: pre;" direction="ltr" dominant-baseline="text-before-edge">reducing the change of users noticing the eventual consistency</text></g><g stroke-linecap="round"><g transform="translate(550.3577426320553 232) rotate(0 0.594175603986514 161.3505799978966)"><path d="M0.03 -0.25 C0.07 53.77, 0.87 269.36, 1.15 322.96" stroke="#e03131" stroke-width="4.5" fill="none" stroke-dasharray="8 12"></path></g></g><mask></mask><g stroke-linecap="round"><g transform="translate(937.7635670280797 231.6494200021043) rotate(0 0.22197472384868888 161.39398715197967)"><path d="M0.34 0.41 C0.18 54.14, 0.07 268.61, 0.11 322.38" stroke="#e03131" stroke-width="4.5" fill="none" stroke-dasharray="8 12"></path></g></g><mask></mask><g stroke-linecap="round"><g transform="translate(1168.3577426320553 177) rotate(0 -110.27808673679829 48.984898294786035)"><path d="M0.18 -0.58 C-19.36 15.66, -79.54 84.85, -116.36 96.27 C-153.17 107.69, -203.42 72.75, -220.73 67.93 M-1.19 1.73 C-20.99 17.69, -81.32 83.04, -117.49 94.29 C-153.66 105.54, -201.12 73.57, -218.22 69.21" stroke="#1e1e1e" stroke-width="2" fill="none"></path></g><g transform="translate(1168.3577426320553 177) rotate(0 -110.27808673679829 48.984898294786035)"><path d="M-189.23 70.11 C-198.95 68.97, -210.67 69.24, -219.25 71 M-188.09 70.57 C-200.34 69.52, -211.58 70.22, -218.35 70.14" stroke="#1e1e1e" stroke-width="2" fill="none"></path></g><g transform="translate(1168.3577426320553 177) rotate(0 -110.27808673679829 48.984898294786035)"><path d="M-197.2 89.02 C-203.76 80.83, -212.52 74.06, -219.25 71 M-196.06 89.48 C-205.3 80.89, -213.4 74.13, -218.35 70.14" stroke="#1e1e1e" stroke-width="2" fill="none"></path></g></g><mask></mask><g transform="translate(978.7535708791256 115) rotate(0 200.6041717529297 20)"><text x="200.6041717529297" y="0" font-family="Virgil, Segoe UI Emoji" font-size="16px" fill="#1e1e1e" text-anchor="middle" style="white-space: pre;" direction="ltr" dominant-baseline="text-before-edge">The commit clock gives us a</text><text x="200.6041717529297" y="20" font-family="Virgil, Segoe UI Emoji" font-size="16px" fill="#1e1e1e" text-anchor="middle" style="white-space: pre;" direction="ltr" dominant-baseline="text-before-edge"> specific point in time relative to the cluster clock</text></g></svg>