<svg version="1.1" xmlns="http://www.w3.org/2000/svg" viewBox="0 0 1314.7154852641106 630" width="1314.7154852641106" height="630">
  <!-- svg-source:excalidraw -->
  
  <defs>
    <style class="style-fonts">
      @font-face {
        font-family: "Virgil";
        src: url("https://excalidraw.com/Virgil.woff2");
      }
      @font-face {
        font-family: "Cascadia";
        src: url("https://excalidraw.com/Cascadia.woff2");
      }
    </style>
    
  </defs>
  <rect x="0" y="0" width="1314.7154852641106" height="630" fill="#ffffff"></rect><g stroke-linecap="round"><g transform="translate(127 566) rotate(0 588.5858236134045 4.986394052207288)"><path d="M-0.25 0.55 C273.13 0.92, 546.13 3.88, 1177.42 10.23 M0.2 -0.26 C399.05 0.72, 798.98 4.25, 1176.9 10.13" stroke="#1e1e1e" stroke-width="2" fill="none"></path></g></g><mask></mask><g transform="translate(643 585) rotate(0 30.97916603088379 17.5)"><text x="0" y="0" font-family="Virgil, Segoe UI Emoji" font-size="28px" fill="#1e1e1e" text-anchor="start" style="white-space: pre;" direction="ltr" dominant-baseline="text-before-edge">Time</text></g><g stroke-linecap="round"><g transform="translate(1304 577) rotate(0 -2.999216764615994 -5.212837809180201)"><path d="M0.72 -1 C-1.15 -2.91, -3.55 -4.9, -6.5 -9.99 M-0.13 -0.44 C-2.85 -3.55, -5.38 -6.73, -6.71 -9.38" stroke="#1e1e1e" stroke-width="2" fill="none"></path></g></g><mask></mask><g stroke-linecap="round"><g transform="translate(1303 576) rotate(0 -2.4041720458044438 4.870242644286918)"><path d="M-0.3 0.92 C-2.03 2.35, -3.65 6.21, -4.66 9.73 M0.45 0.01 C-1.7 3.37, -3.15 5.89, -5.26 8.76" stroke="#1e1e1e" stroke-width="2" fill="none"></path></g></g><mask></mask><g stroke-linecap="round" transform="translate(165 271) rotate(0 5 24)"><path d="M0 0 C0 0, 0 0, 0 0 M0 0 C0 0, 0 0, 0 0 M-0.89 13.28 C2.36 8.07, 6.89 3.52, 10.37 1.23 M-0.48 12.4 C2.62 8.51, 4.92 6.38, 10.85 -0.14 M0.69 22.8 C2.78 19.73, 8.05 14.8, 11.34 11.51 M-0.09 24.8 C3.11 21.37, 4.82 18.6, 9.47 12.66 M0.73 37.84 C3.85 32.63, 4.26 31.82, 10.78 26.13 M-0.91 36.21 C1.81 33.8, 4.58 31.38, 10.61 25.19 M-0.04 49.09 C3.34 43.9, 8.32 39.41, 11.49 37.66 M-0.14 48.36 C2.97 45.46, 4.58 43.34, 10.44 36.46 M-0.37 47.68 C-0.37 47.68, -0.37 47.68, -0.37 47.68 M-0.37 47.68 C-0.37 47.68, -0.37 47.68, -0.37 47.68 M11.89 45.66 C7.43 43.79, 4.9 42.15, 0.88 36.8 M11.48 46.42 C8.41 44.69, 6.06 43.25, 0.98 37.74 M11.65 36.55 C6.98 33.8, 2.85 29.26, 0.75 28.29 M11.41 36.57 C8.18 32.81, 4.22 30.64, -0.01 27.53 M11.03 24.97 C6.2 21.05, 2.7 17.29, 0.32 16.12 M10.64 25.74 C6.97 23.13, 4.34 19.79, 0.23 15.9 M11.43 14.58 C7.78 10.64, 2.67 7.38, 0.77 4.71 M11.13 15.66 C7.25 13.11, 5.37 9.61, -0.35 5.49 M11.77 4.71 C7.53 2.46, 5.4 -1.8, 2.86 -3.31 M11.03 3.88 C7.82 2.03, 5.2 -0.34, 2.03 -3.38" stroke="#ffc9c9" stroke-width="1" fill="none"></path><path d="M0.33 0.71 C2.73 -0.66, 4.48 0.88, 10.02 0.21 M-0.25 -0.23 C3.03 -0.33, 6.7 -0.09, 10.17 -0.25 M10.09 1.87 C10.16 19.49, 7.98 35.8, 8.34 47.97 M9.91 -0.27 C9.96 10.85, 10.81 22.01, 10.97 48.06 M10.31 47.99 C6.89 48.87, 3.73 47.79, 0.82 48.11 M10.35 47.82 C6.89 48.41, 3.11 48.35, -0.21 48.3 M0.79 48.96 C1.36 37.72, 1.03 29.1, 1.14 -1.58 M-0.87 48.98 C-0.46 35.47, -0.1 22.92, -0.79 0.64" stroke="#1e1e1e" stroke-width="2" fill="none"></path></g><g stroke-linecap="round" transform="translate(246 334) rotate(0 5 24)"><path d="M0 0 C0 0, 0 0, 0 0 M0 0 C0 0, 0 0, 0 0 M-0.89 10.94 C3.38 9.33, 5.18 6.89, 11.47 -1.49 M-0.42 11.43 C4.32 7.3, 7.56 3.09, 10.02 0.37 M-0.53 22.67 C4.05 21.04, 7.7 15.82, 9.35 11.97 M0.19 23.89 C1.89 21.7, 4.52 18.71, 10.59 12.92 M0.88 36.54 C2.51 33.55, 6.66 28.28, 9.92 23.56 M-0.08 37.14 C2.97 33.06, 7.04 28.31, 9.83 25.6 M0.97 48.59 C4.01 46.77, 5.35 43.52, 10.75 36.71 M1.24 47.51 C3.06 44.97, 4.91 43.75, 11.12 36.9 M-0.37 47.68 C-0.37 47.68, -0.37 47.68, -0.37 47.68 M-0.37 47.68 C-0.37 47.68, -0.37 47.68, -0.37 47.68 M10.74 46.98 C5.82 42.13, 3.47 40.86, 0.42 37.67 M10.53 46.84 C6.82 43.54, 3.22 40.15, -0.18 38.29 M10.97 36.3 C7.4 32.25, 5.11 31.4, -0.38 28.29 M11.21 35.88 C8.94 34.62, 6.47 32.32, -0.01 27.74 M11.49 25.11 C7.81 21.91, 4.33 19.32, 1.42 16.75 M11.44 25.46 C8.55 23.77, 5.24 21.43, 0.35 16.29 M11.56 15.38 C8.77 13.9, 4.91 10.87, -0.06 5.08 M11.27 15.49 C6.92 11.16, 3.47 8.77, 0.81 5.13 M11.49 4.2 C7.94 2.11, 6.32 0.31, 3.4 -1.95 M10.88 4.7 C8.11 1.17, 4.04 -1.31, 2.45 -2.53" stroke="#ffc9c9" stroke-width="1" fill="none"></path><path d="M0.9 0.67 C1.43 0.74, 4.54 -1.01, 9.92 0.81 M-0.17 -0.17 C2.9 -0.26, 6.77 0.1, 9.94 0.3 M11.97 -0.67 C8.81 13.86, 11.63 29.83, 10.71 47.27 M9.01 0.76 C9.15 15.96, 10.08 31.42, 10.81 48.88 M9.07 47.42 C6.39 47.31, 3.87 48.35, -0.69 47.41 M10.31 48.34 C7.08 47.65, 3.34 47.75, 0.38 47.91 M-0.23 48.66 C-1.59 31.22, -0.2 16.84, 0.74 0.11 M0.03 47.6 C-0.11 33.33, -0.76 19.91, 0.57 -0.08" stroke="#1e1e1e" stroke-width="2" fill="none"></path></g><g stroke-linecap="round" transform="translate(199 409) rotate(0 5 24)"><path d="M0 0 C0 0, 0 0, 0 0 M0 0 C0 0, 0 0, 0 0 M-0.71 10.53 C4.16 8.8, 8.06 3.23, 9.82 -0.88 M0.05 11.84 C1.86 9.5, 4.67 6.31, 11.14 0.13 M1.33 23.77 C2.86 20.97, 6.75 16.02, 9.81 11.6 M0.43 24.33 C3.29 20.51, 7.11 16.05, 9.72 13.5 M0.21 37.34 C3.45 35.39, 4.88 31.92, 10.64 24.66 M0.5 36.18 C2.44 33.47, 4.42 32.17, 11.04 24.87 M-0.08 48.99 C4.84 42.53, 8.36 40.51, 9.7 37.7 M0.33 48.11 C3.63 45.36, 5.63 43.02, 10.08 36.92 M-0.37 47.68 C-0.37 47.68, -0.37 47.68, -0.37 47.68 M-0.37 47.68 C-0.37 47.68, -0.37 47.68, -0.37 47.68 M11 46.93 C7.43 42.88, 5.15 42.03, -0.34 38.92 M11.24 46.51 C8.97 45.25, 6.5 42.95, 0.02 38.37 M11.52 35.74 C7.85 32.54, 4.36 29.95, 1.46 27.38 M11.48 36.09 C8.58 34.4, 5.27 32.06, 0.39 26.92 M11.59 26.01 C8.81 24.53, 4.94 21.5, -0.03 15.71 M11.31 26.12 C6.96 21.79, 3.51 19.4, 0.84 15.76 M11.72 14.78 C7.2 12.13, 5.14 9.84, 1.43 6.95 M10.94 15.41 C7.42 10.92, 2.24 7.77, 0.21 6.21 M10.56 5.42 C8.3 2.7, 5.78 0.78, 3.41 -3.53 M10.87 4.28 C7.54 1.95, 4.71 -1.67, 2.8 -2.75" stroke="#ffc9c9" stroke-width="1" fill="none"></path><path d="M0.99 -0.33 C2.34 -0.33, 6.77 0.4, 10.35 -0.36 M-0.5 0.38 C3.07 0.01, 6.89 -0.31, 10.4 0.44 M8.14 -1.16 C8.27 12.59, 9 28.55, 8.63 46.82 M10.61 0.69 C10.5 14.61, 9.42 30.17, 10.76 47.82 M9.89 48.33 C5.88 47.17, 3.44 47.5, 0.37 48.06 M10.01 47.8 C7.13 47.62, 3.87 47.96, 0.29 47.96 M-0.88 49.53 C-1.46 29.31, -0.28 13.59, 0.48 -0.53 M0.51 48.55 C0.39 34.12, -0.21 19.33, -0.94 0.31" stroke="#1e1e1e" stroke-width="2" fill="none"></path></g><g stroke-linecap="round" transform="translate(280 485) rotate(0 5 24)"><path d="M0 0 C0 0, 0 0, 0 0 M0 0 C0 0, 0 0, 0 0 M0.93 13.55 C1.89 9.2, 4.96 5, 11.99 1.56 M0.8 11.71 C3.73 8.7, 5.79 4.92, 11.05 -0.4 M-1.1 23.68 C3.76 21.6, 6.81 17.02, 10.08 12.18 M0.73 23.99 C3.26 20.1, 5.64 17.58, 10.75 12.8 M-1.78 36 C2.69 32.4, 5.88 29.05, 9.82 23.59 M0.35 36.93 C3.79 32.13, 7.06 28.02, 10.61 24.41 M1.67 48.86 C3.64 44.2, 8.57 39.14, 9.76 36.14 M-0.21 48.51 C4.1 44.04, 8.03 39.65, 10.46 37.46 M-0.37 47.68 C-0.37 47.68, -0.37 47.68, -0.37 47.68 M-0.37 47.68 C-0.37 47.68, -0.37 47.68, -0.37 47.68 M12.31 47.81 C9.24 44.37, 4.24 42.66, 0.68 38.83 M11.23 47.34 C8.7 44.52, 6.4 42.99, 0.12 38.29 M10.25 36.51 C7.6 34.06, 1.85 28.44, 0.29 27 M10.55 36.12 C7.77 33.1, 3.7 29.83, 0.86 27.67 M10.03 25.87 C8.04 23.3, 6.78 22.05, -0.8 17.28 M11.54 25.22 C6.93 22.39, 4.04 20.14, 0.9 17 M11.82 15.17 C9.22 12.63, 4.57 9.05, 0.15 6.89 M11.14 14.33 C7.99 12.94, 5.93 10.7, 0.18 5.52 M10.78 4.91 C8.36 3.32, 7.76 0.39, 2.72 -3.17 M10.95 4.45 C7.58 1.32, 5.21 -1.24, 2.88 -3" stroke="#ffc9c9" stroke-width="1" fill="none"></path><path d="M-0.9 0.03 C2.66 0.08, 5.54 -0.57, 10.1 0.57 M-0.14 -0.22 C3.3 -0.38, 5.37 -0.09, 9.8 0.12 M9.16 1.02 C11.09 13.86, 10.76 25.79, 9.74 46.11 M9.84 -0.64 C9.07 16.33, 9.92 31.7, 10.51 48.53 M10.94 47.31 C7.15 48.16, 5.85 47.14, 0.6 47.24 M10.48 47.74 C6.02 48.22, 3.34 48.27, -0.05 47.75 M-0.87 47.79 C-0.06 35, 0.21 24.74, -1.98 1.28 M-0.81 48.71 C-0.38 32.1, 0.23 17.08, -0.35 -0.2" stroke="#1e1e1e" stroke-width="2" fill="none"></path></g><g transform="translate(10 278) rotate(0 43.375 17.5)"><text x="43.375" y="0" font-family="Virgil, Segoe UI Emoji" font-size="28px" fill="#1e1e1e" text-anchor="middle" style="white-space: pre;" direction="ltr" dominant-baseline="text-before-edge">Node 1</text></g><g transform="translate(10.625 341.5) rotate(0 49.57291793823242 17.5)"><text x="49.57291793823242" y="0" font-family="Virgil, Segoe UI Emoji" font-size="28px" fill="#1e1e1e" text-anchor="middle" style="white-space: pre;" direction="ltr" dominant-baseline="text-before-edge">Node 2</text></g><g transform="translate(14.625 418.5) rotate(0 49.13541793823242 17.5)"><text x="49.13541793823242" y="0" font-family="Virgil, Segoe UI Emoji" font-size="28px" fill="#1e1e1e" text-anchor="middle" style="white-space: pre;" direction="ltr" dominant-baseline="text-before-edge">Node 3</text></g><g transform="translate(16.625 485.5) rotate(0 48.5625 17.5)"><text x="0" y="0" font-family="Virgil, Segoe UI Emoji" font-size="28px" fill="#1e1e1e" text-anchor="start" style="white-space: pre;" direction="ltr" dominant-baseline="text-before-edge">Node 4</text></g><g stroke-linecap="round"><g transform="translate(135 225) rotate(0 92.27133269608021 -0.02165572715966846)"><path d="M-1.7 -1.09 C56.06 -0.19, 111.87 2.45, 186.24 0.09" stroke="#2f9e44" stroke-width="2.5" fill="none" stroke-dasharray="8 10"></path></g></g><mask></mask><g transform="translate(178.98958206176758 198.5) rotate(0 45.01041793823242 10)"><text x="45.01041793823242" y="0" font-family="Virgil, Segoe UI Emoji" font-size="16px" fill="#2f9e44" text-anchor="middle" style="white-space: pre;" direction="ltr" dominant-baseline="text-before-edge">Node Start</text></g><g stroke-linecap="round"><g transform="translate(186 293) rotate(0 177.19071763650936 0.9476783439658902)"><path d="M0.73 -0.75 C122.3 2.77, 247.65 2.96, 353.23 2.41 M0.49 -0.02 C85.28 2.29, 170.13 2.98, 353.89 2.45" stroke="#1e1e1e" stroke-width="1" fill="none"></path></g><g transform="translate(186 293) rotate(0 177.19071763650936 0.9476783439658902)"><path d="M326.84 11.58 C334.02 10.86, 347.12 5.95, 352.69 1.53 M326.47 12.7 C333.33 11.39, 340.22 8.89, 353.72 1.6" stroke="#1e1e1e" stroke-width="1" fill="none"></path></g><g transform="translate(186 293) rotate(0 177.19071763650936 0.9476783439658902)"><path d="M326.82 -8.94 C334.09 -2.51, 347.2 -0.29, 352.69 1.53 M326.45 -7.82 C333.26 -4.22, 340.15 -1.8, 353.72 1.6" stroke="#1e1e1e" stroke-width="1" fill="none"></path></g></g><mask></mask><g stroke-linecap="round"><g transform="translate(264.809282363487 359.0523216560341) rotate(0 176.86875686336862 1.3867376652615349)"><path d="M0.98 -0.05 C85.83 2.93, 170.76 3.6, 353.78 1.9 M-0.04 0.38 C118.18 0.09, 236.81 0.01, 353.71 2.7" stroke="#1e1e1e" stroke-width="1" fill="none"></path></g><g transform="translate(264.809282363487 359.0523216560341) rotate(0 176.86875686336862 1.3867376652615349)"><path d="M326.88 12.43 C333.85 12.27, 340.93 9.85, 353.37 0.99 M325.28 13.09 C334.41 9.84, 344.06 4.88, 353.25 2.24" stroke="#1e1e1e" stroke-width="1" fill="none"></path></g><g transform="translate(264.809282363487 359.0523216560341) rotate(0 176.86875686336862 1.3867376652615349)"><path d="M327.22 -8.09 C334.05 -3.34, 341.05 -0.84, 353.37 0.99 M325.62 -7.42 C334.45 -3.81, 343.99 -1.9, 353.25 2.24" stroke="#1e1e1e" stroke-width="1" fill="none"></path></g></g><mask></mask><g stroke-linecap="round"><g transform="translate(219.809282363487 433.0523216560341) rotate(0 176.87169206761973 0.98630014628543)"><path d="M0.22 1.26 C73.6 3.19, 144.08 2.32, 354.19 2.17 M-0.44 0.45 C75.97 -1.09, 150.7 -1.07, 353.7 2.45" stroke="#1e1e1e" stroke-width="1" fill="none"></path></g><g transform="translate(219.809282363487 433.0523216560341) rotate(0 176.87169206761973 0.98630014628543)"><path d="M325.71 14.25 C333.07 11.22, 335.87 6.9, 353.99 1.16 M324.67 12.99 C332.31 10.15, 337.28 7.09, 353.25 1.6" stroke="#1e1e1e" stroke-width="1" fill="none"></path></g><g transform="translate(219.809282363487 433.0523216560341) rotate(0 176.87169206761973 0.98630014628543)"><path d="M326.02 -6.27 C333.22 -5.1, 335.96 -5.22, 353.99 1.16 M324.98 -7.53 C332.49 -6, 337.39 -4.68, 353.25 1.6" stroke="#1e1e1e" stroke-width="1" fill="none"></path></g></g><mask></mask><g stroke-linecap="round"><g transform="translate(302.809282363487 508.0523216560341) rotate(0 176.91329935419708 0.9824819507366556)"><path d="M-0.35 0.99 C88.43 0.57, 176.2 1.81, 354.18 1.93 M0.52 -0.61 C116.8 0.81, 233.31 1.04, 353.79 2.57" stroke="#1e1e1e" stroke-width="1" fill="none"></path></g><g transform="translate(302.809282363487 508.0523216560341) rotate(0 176.91329935419708 0.9824819507366556)"><path d="M324.95 14.08 C332.6 8.22, 338.67 6.5, 354.06 0.91 M326.3 11.6 C335.18 9.6, 344.45 5.14, 353.46 1.91" stroke="#1e1e1e" stroke-width="1" fill="none"></path></g><g transform="translate(302.809282363487 508.0523216560341) rotate(0 176.91329935419708 0.9824819507366556)"><path d="M325.16 -6.44 C332.76 -7.18, 338.78 -3.77, 354.06 0.91 M326.51 -8.92 C335.4 -4.16, 344.6 -1.87, 353.46 1.91" stroke="#1e1e1e" stroke-width="1" fill="none"></path></g></g><mask></mask><g stroke-linecap="round" transform="translate(554.0069643499883 272) rotate(0 5 24)"><path d="M0 0 C0 0, 0 0, 0 0 M0 0 C0 0, 0 0, 0 0 M0.76 10.87 C2.8 7.41, 7.29 5.36, 9.98 -0.24 M-0.19 12.33 C3.44 7.19, 7.08 2.77, 10.17 -0.61 M0.35 23.85 C2.25 20.73, 5.64 19.6, 9.54 14.24 M0.04 24.46 C2.72 21.05, 6.68 16.74, 10.71 12.95 M0.49 38.4 C0.79 32.77, 3.97 31.63, 8.92 23.92 M-0.95 36.46 C2.53 34.09, 4.28 31.25, 9.97 24.49 M1.89 48.61 C3.28 46.81, 4.2 41.47, 9.05 36.47 M0.17 47.76 C3.37 44.7, 7.5 40.52, 10.5 37.33 M-0.37 47.68 C-0.37 47.68, -0.37 47.68, -0.37 47.68 M-0.37 47.68 C-0.37 47.68, -0.37 47.68, -0.37 47.68 M10.21 48.21 C8.12 43.69, 5.69 42.13, 1.58 37.07 M11.4 46.4 C7.78 44.3, 5.71 43.32, -0.31 37.47 M10.82 37.39 C7.89 33.64, 4.23 30.36, 1.62 27.66 M11.3 36.83 C7.95 34.08, 4.75 30.74, 0.94 27.22 M11.64 26.37 C5.55 23.43, 3.95 18.7, -0.65 17.02 M10.96 25.74 C6.42 22.91, 3.49 18.84, 0.09 15.8 M11.99 15.63 C7.32 12.55, 6.54 9.21, 0.18 5.69 M11.07 14.49 C6.37 11.94, 2.11 8.41, 0.49 5.86 M9.91 3.72 C9.37 1.93, 6.54 1.88, 1.69 -2.81 M11.03 4.64 C9.24 2.57, 7.24 0.61, 2.49 -3.35" stroke="#ffc9c9" stroke-width="1" fill="none"></path><path d="M0.25 0.68 C3.03 -0.07, 4.64 0.38, 10.2 0.74 M-0.23 -0.21 C4.07 0.25, 7.01 0.31, 9.97 0.21 M11.47 1.79 C11.51 11.33, 11.61 21.48, 9.45 48.97 M10.46 -0.48 C10.18 10.65, 10.15 19, 10.71 48.38 M10.53 48.71 C8.35 48.12, 5.71 48.64, -0.35 48.47 M10.28 48.37 C7.17 48.38, 4.84 47.89, -0.07 48 M0.83 46.94 C-1.59 35.72, -0.86 24.48, -0.8 -0.9 M0.32 47.43 C0.12 34.56, -0.2 20.62, -0.83 -0.18" stroke="#1e1e1e" stroke-width="2" fill="none"></path></g><g stroke-linecap="round" transform="translate(635.0069643499883 335) rotate(0 5 24)"><path d="M0 0 C0 0, 0 0, 0 0 M0 0 C0 0, 0 0, 0 0 M-0.08 10.9 C5.21 7.95, 7.08 3.12, 11.56 -0.26 M-0.34 11.46 C2.16 8.38, 4.86 5.52, 10.09 0.28 M0.01 23.37 C4.23 21.29, 5.94 18.39, 10.33 13.78 M-0.3 24.64 C3.84 20.11, 7.39 16.76, 9.72 12.99 M-1.78 35.72 C1.41 34.4, 3.7 29.76, 9.42 23.51 M-0.18 37.12 C2.5 33.39, 6.45 28.72, 9.78 24.91 M0.91 49.55 C2.32 43.51, 5.06 40.92, 10.64 35.84 M0.16 48.24 C3.57 45, 5.42 43.29, 10.36 37.12 M-0.37 47.68 C-0.37 47.68, -0.37 47.68, -0.37 47.68 M-0.37 47.68 C-0.37 47.68, -0.37 47.68, -0.37 47.68 M11.25 46.39 C8.71 44.79, 5.63 40.65, -0.56 37.14 M10.23 46.37 C6.52 43.95, 2.09 39.53, 0.62 38.38 M11.56 36.79 C8.67 34.26, 6.58 32.05, -0.1 26.68 M10.78 36.54 C7.03 32.86, 4.75 30.67, 0.86 27.46 M9.59 26.82 C7.99 22.19, 2.01 19.43, 1.18 16.4 M10.26 26.23 C7.82 22.61, 3.94 19.18, -0.16 16.77 M9.86 14.78 C8.89 11.39, 5.45 10.39, 1.61 5.67 M10.55 15.56 C6.94 12.53, 3.98 8.85, -0.2 5.77 M11.33 3.65 C8.2 3.25, 5.41 0.32, 1.82 -2.24 M11.28 4.36 C9.32 2.51, 6.92 0.57, 2.05 -3.07" stroke="#ffc9c9" stroke-width="1" fill="none"></path><path d="M0.7 -0.13 C2.41 0.25, 5.04 0.67, 10.66 -0.08 M0.41 0.17 C1.93 0.28, 4.45 0.25, 9.52 -0.29 M11.79 1.53 C12.25 15.59, 9.8 28.39, 8.15 49.64 M9.78 0.69 C9.98 9.28, 10.93 20.8, 9.07 48.86 M10.42 48.11 C6.74 48.7, 3.43 48.54, -0.57 48.4 M9.6 48.3 C5.88 47.88, 2.28 48.07, -0.19 48.13 M-1.47 48.31 C-0.94 31.3, -1 10.37, -0.41 -1.58 M-0.26 47.98 C-0.74 30.16, -0.99 13.25, -0.6 -0.89" stroke="#1e1e1e" stroke-width="2" fill="none"></path></g><g stroke-linecap="round" transform="translate(588.0069643499883 410) rotate(0 5 24)"><path d="M0 0 C0 0, 0 0, 0 0 M0 0 C0 0, 0 0, 0 0 M1.43 12.27 C1.87 9.18, 5.84 6.42, 9.75 -0.69 M-0.46 11.37 C3.27 7.48, 6.71 4.32, 10.77 0.01 M1.11 24.87 C2.52 22.39, 6.1 18.71, 10.55 12.3 M0.57 23.89 C4.41 20.23, 6.87 16.3, 9.76 13.11 M-1.2 37.57 C2.69 31.3, 7.33 26.12, 10.68 23.41 M-1.04 37.29 C2.06 33.55, 4.46 30.98, 10.26 25.53 M-0.56 46.96 C2.42 43.97, 7.26 39.6, 9.46 36.12 M1.16 47.66 C3.13 45.86, 5.42 42.86, 9.91 37.45 M-0.37 47.68 C-0.37 47.68, -0.37 47.68, -0.37 47.68 M-0.37 47.68 C-0.37 47.68, -0.37 47.68, -0.37 47.68 M11.94 47.55 C7.96 42.59, 1.65 39.04, 1.52 38.68 M10.63 47.55 C7.91 44.45, 6.4 43.25, 0.11 37.68 M11.47 36.61 C8.12 33.39, 2.37 28.91, 0.55 27.91 M10.43 35.68 C7.48 32.94, 3.37 29.67, 0.82 27.47 M11.97 25.55 C6.27 23.06, 4.37 19.19, 0.51 16.67 M11.18 25.5 C7.39 22.18, 3.81 20.25, -0.09 17.03 M11.58 13.61 C7.15 11.69, 4.93 8.49, 0.71 6.34 M10.49 15.67 C8.69 13.04, 5.61 10.88, 0.1 5.26 M10.46 5.32 C7.95 2.61, 6.09 1.44, 1.71 -2.34 M11.27 4.13 C7.82 1.34, 4.48 -0.89, 2.23 -2.44" stroke="#ffc9c9" stroke-width="1" fill="none"></path><path d="M0 0.32 C3.88 0.75, 8.03 -0.06, 9.24 -0.47 M-0.31 0.24 C2.55 0.17, 4.68 -0.32, 9.93 0.37 M11.89 1.88 C9.88 19.66, 8.58 39.01, 8.25 48.92 M9.76 -0.93 C10.6 12.5, 8.96 25.1, 10.11 48.53 M9.85 48.63 C5.94 48.48, 2.01 48.41, 0.83 48.56 M9.7 47.8 C6.19 48.06, 2.33 48.19, 0.41 48.21 M-0.74 49.66 C-0.45 35.24, -0.06 22.7, 1.2 0.64 M-0.58 47.45 C-0.7 36.14, -0.47 23.75, -0.11 0.59" stroke="#1e1e1e" stroke-width="2" fill="none"></path></g><g stroke-linecap="round" transform="translate(669.0069643499883 486) rotate(0 5 24)"><path d="M0 0 C0 0, 0 0, 0 0 M0 0 C0 0, 0 0, 0 0 M-0.52 11.84 C3.37 9.04, 3.96 5.84, 11.2 -0.98 M-0.32 11.46 C2.06 9.7, 5.13 6.69, 10.51 -0.17 M-0.3 25.57 C2.91 22.19, 5.62 17.85, 10.87 11.63 M0.87 24.27 C3.52 20.1, 7.25 15.98, 10.82 12.05 M-1.58 36 C1.38 32.79, 5.03 29.95, 9.4 24.96 M-0.52 36.57 C2.87 32.94, 6.82 29.56, 10.48 25 M-0.79 47.8 C4.75 42.79, 7.43 38.63, 9.56 36.1 M0.66 48.65 C3.48 44.99, 6.09 41.81, 10.99 36.51 M-0.37 47.68 C-0.37 47.68, -0.37 47.68, -0.37 47.68 M-0.37 47.68 C-0.37 47.68, -0.37 47.68, -0.37 47.68 M12.15 46.25 C7.14 43.95, 6.43 43.06, -0.62 36.33 M10.26 46.65 C8.84 45.6, 5.95 42.82, 0.92 38.04 M12.19 36.85 C6.85 32.79, 3.94 30.92, 1.46 26.86 M11.5 36.41 C7.89 33.44, 4.26 30.32, 0.69 26.44 M9.92 26.21 C7.6 22.04, 2.87 18.77, 0.5 15.27 M10.65 24.99 C6.27 22.39, 2.26 19.1, 0.6 15.97 M10.74 14.88 C9.12 12.14, 5.22 10.2, -0.78 5.3 M11.05 15.04 C6.4 11.57, 2.69 7.58, -0.17 6.16 M9.99 4.4 C8.19 3.35, 6.13 1.55, 3.02 -1.85 M10.79 3.86 C7.81 1.96, 5.52 0.44, 2.99 -2.89" stroke="#ffc9c9" stroke-width="1" fill="none"></path><path d="M0.2 0.74 C3.53 -0.11, 4.98 -0.5, 9.58 0.82 M-0.03 0.21 C2.87 -0.34, 6.62 0.32, 10.45 0.45 M9.45 0.97 C8.61 19.72, 8.71 37.08, 9.05 47.56 M10.71 0.38 C8.95 18.57, 9.99 35.96, 10.71 48.42 M9.65 48.47 C6.32 48.46, 4.61 48.63, 0.74 47.2 M9.93 48 C6.21 48.09, 3.22 48.17, -0.26 47.63 M-0.8 47.1 C-0.23 31.27, 1.38 18.34, -1.13 -0.53 M-0.83 47.82 C-0.32 32.81, 0.17 20, 0.48 0.07" stroke="#1e1e1e" stroke-width="2" fill="none"></path></g><g stroke-linecap="round"><g transform="translate(575.0069643499883 294) rotate(0 176.93791601031626 1.6045382730244455)"><path d="M0.85 -0.1 C116.55 -1.29, 234.52 1.36, 354.44 2.2 M-0.62 -0.37 C122.79 0.56, 246.34 1.7, 354.49 3.61" stroke="#1e1e1e" stroke-width="1" fill="none"></path></g><g transform="translate(575.0069643499883 294) rotate(0 176.93791601031626 1.6045382730244455)"><path d="M327.47 13.29 C334.02 9.03, 344.11 8.33, 355.18 2.37 M325.19 12.86 C335.85 10.65, 346.73 7.39, 355.26 4.56" stroke="#1e1e1e" stroke-width="1" fill="none"></path></g><g transform="translate(575.0069643499883 294) rotate(0 176.93791601031626 1.6045382730244455)"><path d="M327.78 -7.23 C334.27 -4.67, 344.26 1.44, 355.18 2.37 M325.5 -7.65 C336.04 -2.75, 346.81 1.12, 355.26 4.56" stroke="#1e1e1e" stroke-width="1" fill="none"></path></g></g><mask></mask><g stroke-linecap="round"><g transform="translate(653.8162467134825 360.0523216560323) rotate(0 176.81390683713835 1.3440626612218693)"><path d="M-0.98 -0.6 C131.8 2.34, 265.11 1.62, 354.61 2.92 M-0.09 0.47 C121.58 2.92, 242.53 3.98, 354.61 2.82" stroke="#1e1e1e" stroke-width="1" fill="none"></path></g><g transform="translate(653.8162467134825 360.0523216560323) rotate(0 176.81390683713835 1.3440626612218693)"><path d="M324.94 12.27 C336.07 10.98, 348.12 4.23, 355.55 2.69 M326.32 13.95 C337.08 10.71, 346.57 7.22, 355.55 2.55" stroke="#1e1e1e" stroke-width="1" fill="none"></path></g><g transform="translate(653.8162467134825 360.0523216560323) rotate(0 176.81390683713835 1.3440626612218693)"><path d="M324.85 -8.25 C336.15 -1.87, 348.24 -0.95, 355.55 2.69 M326.22 -6.58 C336.82 -2.79, 346.35 0.73, 355.55 2.55" stroke="#1e1e1e" stroke-width="1" fill="none"></path></g></g><mask></mask><g stroke-linecap="round"><g transform="translate(608.8162467134825 434.0523216560323) rotate(0 176.9993051252677 1.2087388136978916)"><path d="M-0.54 1.05 C103.95 1.15, 207.64 2.74, 354.54 1.77 M0.57 0.57 C86.2 -0.34, 172.03 -0.4, 354.31 2.41" stroke="#1e1e1e" stroke-width="1" fill="none"></path></g><g transform="translate(608.8162467134825 434.0523216560323) rotate(0 176.9993051252677 1.2087388136978916)"><path d="M325.15 13.93 C335.04 8.3, 343.57 6.52, 355.15 0.49 M326.89 13.2 C333.63 10.64, 340.66 7.03, 354.8 1.48" stroke="#1e1e1e" stroke-width="1" fill="none"></path></g><g transform="translate(608.8162467134825 434.0523216560323) rotate(0 176.9993051252677 1.2087388136978916)"><path d="M325.42 -6.59 C335.07 -6.22, 343.53 -2, 355.15 0.49 M327.15 -7.32 C333.8 -4.9, 340.77 -3.56, 354.8 1.48" stroke="#1e1e1e" stroke-width="1" fill="none"></path></g></g><mask></mask><g stroke-linecap="round"><g transform="translate(691.8162467134825 509.0523216560323) rotate(0 177.4856967131018 0.8993789763680979)"><path d="M0.44 -0.8 C90.23 -1.18, 179.79 -1.57, 353.26 2.81 M0.49 0.61 C132.87 -1.09, 264.82 -0.39, 354.53 2.44" stroke="#1e1e1e" stroke-width="1" fill="none"></path></g><g transform="translate(691.8162467134825 509.0523216560323) rotate(0 177.4856967131018 0.8993789763680979)"><path d="M326.81 10.85 C334.3 9.29, 341.38 5.05, 353.37 2.15 M326.89 13.04 C337.59 7.95, 347.75 3.7, 355.35 1.57" stroke="#1e1e1e" stroke-width="1" fill="none"></path></g><g transform="translate(691.8162467134825 509.0523216560323) rotate(0 177.4856967131018 0.8993789763680979)"><path d="M327.25 -9.67 C334.54 -6.03, 341.52 -5.07, 353.37 2.15 M327.33 -7.48 C338.05 -4.89, 348.04 -1.48, 355.35 1.57" stroke="#1e1e1e" stroke-width="1" fill="none"></path></g></g><mask></mask><g stroke-linecap="round" transform="translate(942.0069643499883 273) rotate(0 5 24)"><path d="M0 0 C0 0, 0 0, 0 0 M0 0 C0 0, 0 0, 0 0 M1.11 10.61 C4.86 9.35, 7.6 3.94, 9.45 -0.55 M0.04 12.52 C3.31 7.85, 7.57 3.09, 10.55 0.55 M-0.85 25.24 C4.68 19.8, 7.4 16.36, 10.14 12.52 M1.02 23.9 C3.38 20.56, 6.1 18.34, 9.38 12.94 M0.68 37.04 C3.66 33.31, 6.9 28.66, 10.74 24.45 M-0.21 37.2 C2.05 33.76, 4.75 31.05, 9.85 25.24 M1.71 48.12 C3.28 45.62, 7.52 39.71, 9.44 38.28 M0.29 47.47 C3.24 44.61, 6.82 40.72, 10.96 36.63 M-0.37 47.68 C-0.37 47.68, -0.37 47.68, -0.37 47.68 M-0.37 47.68 C-0.37 47.68, -0.37 47.68, -0.37 47.68 M11.21 47.32 C7.92 44.69, 5.41 43.98, -0.18 36.48 M10.73 47.35 C6.76 43.39, 2.37 39.88, 1.03 37.9 M11.15 35.25 C5.99 32.44, 3.95 30.34, 1.55 27.82 M10.44 35.91 C8.33 35.11, 7.06 32.8, -0.03 27.01 M9.56 24.62 C8.24 24.47, 4.82 19.44, -0.28 15.76 M10.46 26.12 C6.73 21.57, 3.1 18.46, -0.01 16.01 M12.12 15.59 C6.71 12.16, 6.23 10.81, 0.43 5.14 M10.17 14.4 C8.07 11.95, 3.47 9.16, 0.16 6.11 M11.4 5.17 C6.83 2.52, 4.1 -1.32, 2.26 -3.22 M10.5 4.91 C9.32 2.98, 6.81 1.36, 3.01 -2.76" stroke="#ffc9c9" stroke-width="1" fill="none"></path><path d="M0.91 0.85 C2.53 -0.59, 4.21 -0.01, 10.97 0.71 M-0.07 0.03 C4.38 0.06, 7.74 -0.36, 10.07 -0.15 M11.58 -0.64 C12.18 10.32, 8.71 18.26, 9.04 49.97 M9.82 -0.2 C10.34 15.63, 11.04 33.23, 10.38 47.59 M9.8 47.76 C7.75 48.32, 3.94 47.43, 0.61 47.95 M10.22 47.68 C6.68 48.36, 3.66 47.55, 0.38 48.32 M1.02 48.95 C-2.08 30.59, 0.36 15.81, 1.2 1.65 M-0.41 47.1 C0.04 35.23, -0.5 24.04, -0.79 -0.45" stroke="#1e1e1e" stroke-width="2" fill="none"></path></g><g stroke-linecap="round" transform="translate(1023.0069643499883 336) rotate(0 5 24)"><path d="M0 0 C0 0, 0 0, 0 0 M0 0 C0 0, 0 0, 0 0 M1.53 13.2 C3.21 9.01, 3.73 6.05, 11.92 1.27 M-0.59 12.54 C3.82 7.56, 8.32 3.07, 11.26 0.32 M1.01 24.17 C3.91 20.54, 8.02 14.98, 9.65 12.62 M0.71 23.62 C3.7 20.99, 5.49 17.3, 10.42 12.81 M0.08 37.43 C2.72 33.38, 6.29 29.48, 9.7 26.1 M-0.65 36.91 C1.75 34.5, 4.34 31.53, 10.54 25.22 M0.01 49.51 C4.37 43.36, 6.57 41.48, 10.53 37.89 M0.26 48.19 C4.41 43.78, 8.35 39.78, 10.79 36.49 M-0.37 47.68 C-0.37 47.68, -0.37 47.68, -0.37 47.68 M-0.37 47.68 C-0.37 47.68, -0.37 47.68, -0.37 47.68 M10.27 46.65 C6.06 44.52, 2.29 38.68, 1.33 38.45 M10.73 46.7 C6.18 43.1, 3.45 40.04, 0.94 37.21 M9.99 36.05 C9.63 35.35, 7.37 32.81, -1.01 27.82 M10.55 36.93 C7.68 33.13, 2.94 29.48, 0.11 26.67 M11.05 26.91 C6.87 21.07, 2.96 18.43, 1.38 15.23 M10.65 24.99 C7.4 22.25, 3.26 18.89, 0.15 15.96 M9.62 14.76 C9.07 13.47, 4.99 9.23, 0.51 5.43 M11.41 14.79 C6.15 11.25, 2.58 8.05, 0.62 5.88 M9.77 4.99 C6.66 0.92, 3.99 -1.62, 1.68 -2.17 M11.25 4.56 C7.49 1.9, 4.99 -0.99, 2.69 -3.34" stroke="#ffc9c9" stroke-width="1" fill="none"></path><path d="M-0.07 -0.65 C1.38 -0.15, 5.71 0.62, 10.98 0.05 M0.4 -0.01 C2.09 -0.44, 4.67 -0.16, 9.5 0.35 M11.84 0.68 C8.75 15.4, 9.42 34.82, 10.92 49.42 M10 -0.97 C10.61 13.9, 10.3 27.32, 9.81 47.6 M10.56 48.39 C7.31 47.48, 6.1 47.93, 0.37 48.38 M10.05 48.45 C8.31 47.58, 6.22 48.26, 0.12 48.26 M-1.83 46.18 C0.37 28.73, 0.95 13.12, -1.04 -0.57 M-0.1 47.14 C-0.44 31.9, -0.6 15.63, 0.46 0.09" stroke="#1e1e1e" stroke-width="2" fill="none"></path></g><g stroke-linecap="round" transform="translate(976.0069643499883 411) rotate(0 5 24)"><path d="M0 0 C0 0, 0 0, 0 0 M0 0 C0 0, 0 0, 0 0 M0.86 11.7 C1.06 8.91, 5.73 8.19, 12.12 -0.22 M-0.32 12.37 C3.94 8.21, 8.43 3.63, 11.34 -0.63 M0 25.01 C3.95 19.57, 7.18 15.39, 10.23 14.26 M0.78 24.46 C2.18 21.2, 5.93 17.96, 10.04 13.2 M-0.27 36.91 C3.48 32.74, 5.69 30.64, 9.25 24.9 M-0.74 37.41 C2.98 33.2, 7.26 29.06, 10.71 25.43 M0.93 47.42 C2.56 46.15, 6.58 42.4, 11.35 36.36 M0.78 47.82 C3.2 45.6, 5.08 43.11, 11.11 36.49 M-0.37 47.68 C-0.37 47.68, -0.37 47.68, -0.37 47.68 M-0.37 47.68 C-0.37 47.68, -0.37 47.68, -0.37 47.68 M10.12 48 C6.93 42.61, 4.95 41.53, 1.57 37.33 M10.25 46.59 C7.75 43.69, 3.79 39.64, -0.18 37.84 M12.01 37.49 C9.77 34.9, 4.8 32.8, 1.19 26.18 M11.45 36.51 C7.93 33.99, 5.43 31.35, 0.67 26.43 M10.49 24.36 C7.87 22.95, 7.12 20.33, 0.95 15.67 M11.02 25.37 C6.67 21.7, 2.92 18.25, 0.14 17.1 M12.11 16 C7.46 11.17, 3.93 8.32, 1.5 4.53 M10.18 14.92 C8.38 13.29, 6.57 11.08, 0.9 6.21 M9.97 3.7 C7.54 1.36, 3.86 -0.29, 3.39 -3.39 M10.63 4.58 C7.94 1.61, 4.32 -1.84, 2.55 -2.99" stroke="#ffc9c9" stroke-width="1" fill="none"></path><path d="M-0.99 -0.07 C4.82 0.78, 8.68 0.12, 9.3 -0.14 M-0.21 -0.43 C3.13 -0.15, 5.61 0.36, 10.21 0.39 M8.37 -1.02 C9.48 14.83, 11.36 27.14, 9.78 47.65 M10.7 0.03 C10.38 13.03, 9.81 26.49, 9.25 47.8 M9.56 47.5 C7.85 47.99, 4.85 48.42, -0.92 48.45 M10.39 47.64 C8.02 48.41, 5.41 48.35, 0.4 48.25 M0.61 47 C1.64 32.96, -0.6 14.05, 0.65 -0.81 M-0.64 47.87 C-0.74 37.46, 0.51 27.89, -0.84 -0.31" stroke="#1e1e1e" stroke-width="2" fill="none"></path></g><g stroke-linecap="round" transform="translate(1057.0069643499883 487) rotate(0 5 24)"><path d="M0 0 C0 0, 0 0, 0 0 M0 0 C0 0, 0 0, 0 0 M-1.04 11.53 C5.27 8.87, 9.39 2.89, 11.59 -1.48 M0.05 12.63 C4.63 7.97, 8.52 2.64, 11.25 0.36 M0.29 23.84 C2.85 20.41, 6.44 18.59, 9.74 13.65 M-0.46 24.26 C2.85 21.39, 4.82 19.07, 10.19 12.92 M0.25 36.53 C2.71 34.13, 5.77 28.9, 10.89 24.01 M-0.65 37.31 C3.31 33.55, 6.66 30.1, 10.22 24.52 M-0.4 49.6 C4.5 44.85, 9.15 38.91, 8.98 36.3 M1.12 47.95 C3.9 44.42, 7.2 40.99, 10.67 37.33 M-0.37 47.68 C-0.37 47.68, -0.37 47.68, -0.37 47.68 M-0.37 47.68 C-0.37 47.68, -0.37 47.68, -0.37 47.68 M10.38 45.67 C8.96 45.11, 6.2 41.39, 1.28 37.32 M11.6 47.08 C8.71 43.84, 4.7 41.96, -0.15 37.26 M12.12 37 C6.47 34.48, 5.65 30.22, -0.38 26.41 M10.54 36.19 C6.42 32.25, 2.79 28.37, -0.19 27.18 M10.29 24.95 C7.83 20.72, 3.26 17.57, 1.26 16.06 M10.56 25.2 C8.49 23.19, 6.27 22.41, 0.57 15.85 M10.99 14.33 C7.99 12.09, 5.99 8.58, -0.95 7.01 M10.72 15.29 C8.42 12.57, 5.85 10.43, 0.75 5.17 M10.57 4 C7.07 2.42, 5.82 -1.38, 3.55 -1.9 M11.31 4.46 C8.24 1.5, 5.33 -0.57, 2.4 -2.62" stroke="#ffc9c9" stroke-width="1" fill="none"></path><path d="M0.97 0.71 C3.32 0.06, 3.99 -0.13, 10.05 0.81 M0.07 -0.15 C2.48 0.44, 6.16 0.48, 9.84 0.46 M9.04 1.97 C10.52 17.45, 9.39 31.7, 9.6 48 M10.38 -0.41 C10.15 9.36, 9.59 19.34, 9.76 48.56 M10.61 47.95 C6.97 48.33, 2.29 48.4, -0.64 48.1 M10.38 48.32 C6.22 48.19, 2.6 48.18, 0.24 47.54 M1.2 49.65 C-1.18 37.39, 0.5 27.11, -1.79 -0.2 M-0.79 47.55 C0.77 37.81, -0.53 27.13, -0.39 -0.29" stroke="#1e1e1e" stroke-width="2" fill="none"></path></g><g stroke-linecap="round"><g transform="translate(482.7286673039198 220.72561736030548) rotate(0 93.51977868378162 1.2368448227643967)"><path d="M-0.08 1.92 C67.07 0.39, 137.25 0.66, 187.12 0.55" stroke="#1e1e1e" stroke-width="2.5" fill="none" stroke-dasharray="8 10"></path></g></g><mask></mask><g transform="translate(539.6974173039198 194.22561736030548) rotate(0 32.03125 10)"><text x="32.03125" y="0" font-family="Virgil, Segoe UI Emoji" font-size="16px" fill="#1e1e1e" text-anchor="middle" style="white-space: pre;" direction="ltr" dominant-baseline="text-before-edge">Commit 1</text></g><g stroke-linecap="round"><g transform="translate(893.4802213162184 219.28831098228693) rotate(0 95.2248328179121 -0.1673957314214931)"><path d="M1.51 -0.26 C57.74 -0.86, 116.73 0.3, 188.94 0.07" stroke="#1e1e1e" stroke-width="2.5" fill="none" stroke-dasharray="8 10"></path></g></g><mask></mask><g transform="translate(946.9281392544508 192.78831098228693) rotate(0 35.55208206176758 10)"><text x="35.55208206176758" y="0" font-family="Virgil, Segoe UI Emoji" font-size="16px" fill="#1e1e1e" text-anchor="middle" style="white-space: pre;" direction="ltr" dominant-baseline="text-before-edge">Commit 2</text></g><g stroke-linecap="round"><g transform="translate(700 73) rotate(0 18.184326760598196 98.30810632712655)"><path d="M0.51 -0.2 C18.95 10.31, 123.52 30.93, 111 63.95 C98.48 96.98, -43.95 175.62, -74.59 197.96 M-0.68 -1.35 C17.58 9.19, 122.55 32.03, 110.05 64.94 C97.55 97.85, -44.72 174.28, -75.67 196.12" stroke="#1e1e1e" stroke-width="2" fill="none"></path></g><g transform="translate(700 73) rotate(0 18.184326760598196 98.30810632712655)"><path d="M-57.4 172.58 C-64.76 179.43, -67.54 190.12, -73.96 194.53 M-56.6 173.36 C-62.45 178.95, -67.39 186.95, -76.5 195.38" stroke="#1e1e1e" stroke-width="2" fill="none"></path></g><g transform="translate(700 73) rotate(0 18.184326760598196 98.30810632712655)"><path d="M-46.62 190.04 C-57.67 191.18, -64 196.13, -73.96 194.53 M-45.82 190.82 C-54.6 191.35, -62.65 194.31, -76.5 195.38" stroke="#1e1e1e" stroke-width="2" fill="none"></path></g></g><mask></mask><g transform="translate(274.9166564941406 10) rotate(0 347.0833435058594 25)"><text x="347.0833435058594" y="0" font-family="Virgil, Segoe UI Emoji" font-size="20px" fill="#1e1e1e" text-anchor="middle" style="white-space: pre;" direction="ltr" dominant-baseline="text-before-edge">Inbetween the gap of node 1 committing and node 4 committing, </text><text x="347.0833435058594" y="25" font-family="Virgil, Segoe UI Emoji" font-size="20px" fill="#1e1e1e" text-anchor="middle" style="white-space: pre;" direction="ltr" dominant-baseline="text-before-edge">users can experience getting different results running the same query.</text></g></svg>