<svg version="1.1" xmlns="http://www.w3.org/2000/svg" viewBox="0 0 1223 1623" width="1223" height="1623">
  <!-- svg-source:excalidraw -->
  
  <defs>
    <style class="style-fonts">
      @font-face {
        font-family: "Virgil";
        src: url("https://excalidraw.com/Virgil.woff2");
      }
      @font-face {
        font-family: "Cascadia";
        src: url("https://excalidraw.com/Cascadia.woff2");
      }
    </style>
    
  </defs>
  <rect x="0" y="0" width="1223" height="1623" fill="#ffffff"></rect><g stroke-linecap="round" transform="translate(27 515) rotate(0 421 95)"><path d="M0 0 C0 0, 0 0, 0 0 M0 0 C0 0, 0 0, 0 0 M-0.59 15.11 C3.16 6.4, 8.83 2.12, 10.12 1.94 M-0.88 11.77 C1.02 8.77, 4.54 6.09, 11.25 -1.45 M-0.57 26.03 C10.26 13.83, 10.24 14.06, 19.56 2.08 M1.48 25.21 C8.58 14.66, 12.8 6.78, 21.33 0.1 M-3.41 40.75 C7.32 21.15, 19.64 12.38, 30.95 1.68 M-0.98 37.53 C11.38 26.41, 20.19 15.5, 33.58 -0.24 M1.25 47.25 C11.89 30.13, 29.52 9.28, 39.76 -2.89 M0.95 49.64 C7.96 39.45, 18.22 27.05, 43.38 -0.16 M2.62 59.92 C18.63 40.9, 36.37 20.16, 53.18 2.17 M-1.27 62.05 C15.5 37.72, 36.83 18.4, 54.44 -0.22 M2.14 70.31 C20.71 56.32, 35.22 38.63, 65 1.55 M0.94 71.33 C21.23 46.98, 46.03 18.48, 63.4 -0.7 M3.85 88.84 C14.46 60.87, 31.59 39.11, 70.6 -0.15 M1.09 86.35 C18.4 62.27, 40.28 37.12, 76.35 -2.06 M-3.27 98.64 C20.21 72.35, 37.02 49.48, 81.96 -1.42 M1.49 96.51 C23.71 72.1, 48.22 44.9, 85.35 -1.46 M-3.7 109.46 C26.59 80.71, 56.12 43.3, 94.65 -2.84 M0.39 108.27 C24.7 87.49, 46.25 61.08, 96.9 -1.27 M-0.26 123.21 C31.5 85.16, 57.7 59.16, 102.82 1.9 M0.51 121.14 C34.88 82.69, 68.62 44.29, 104.46 -1.58 M3.46 131.96 C33.7 97.01, 68.53 55.62, 113.58 3.8 M0.19 132.16 C42.7 81.81, 85.79 30.64, 116.29 0.1 M1.47 143.69 C33.67 110.24, 59.1 74.15, 124.6 0.47 M1.2 144.17 C38.13 103.77, 78.31 58.59, 126.55 1.28 M-0.29 159.9 C54.25 99.37, 109.4 36.46, 135.44 1.55 M0.53 158.18 C51.83 101.2, 100.37 43.79, 136.11 -1.27 M1.42 173.8 C55.69 99.29, 120.52 33.55, 147.85 3.01 M-1.74 169.56 C40.62 128.7, 75.29 84.67, 146.87 -0.01 M2.93 184.56 C52.28 126.54, 102.13 67.13, 158.68 -1.96 M-0.19 183.74 C37.44 147.48, 68.8 107.6, 158.54 1.25 M5.58 190.72 C64.24 132.47, 118.8 61.49, 171.87 -2.52 M1.47 191.84 C39.65 146.36, 81.34 101.13, 169.15 -1.37 M13.93 191.48 C80.83 116.55, 145.97 43.97, 177.97 3.18 M13.9 191.47 C52.04 147.23, 92.76 104.64, 178.87 0.33 M25.35 192.95 C61.66 145.79, 109.51 95.75, 192.31 -2.97 M23.54 190.95 C86.82 114.78, 148.54 44.39, 190.19 0.09 M36.89 192.1 C77.02 141.77, 119.07 90.12, 202.34 -0.35 M32.95 192.19 C92.75 124.62, 147.71 60.52, 201.92 -0.4 M45.63 190.04 C88.34 141.17, 132.21 92.01, 212.19 0.03 M46.2 193.06 C81.41 151.63, 119.39 107.81, 212.86 1.6 M56.84 190.85 C116.13 129.22, 170.33 64.41, 222.42 1.63 M55.65 191.48 C112.18 128.84, 165.58 68.61, 222.13 -0.2 M66.44 192.95 C112.73 140.5, 159.36 86.93, 235.69 -2.66 M64.39 191.77 C124.13 125.27, 183.01 58.34, 232.9 1.04 M78.91 190.65 C112.12 151.29, 145.49 114.75, 243.01 2.6 M76.26 191.99 C138.58 119.03, 203.22 49.47, 243.01 -0.91 M87.08 194.33 C148.38 121.96, 210.23 54.64, 255.28 -1.99 M86.61 193.27 C154.1 113.97, 216.44 40.89, 255.14 0.08 M97.2 192.48 C165.53 118.24, 231.2 41.93, 263.65 1.3 M98.81 192.97 C150.1 130.7, 203.36 69.9, 264.23 -0.54 M108.71 191.29 C162.91 128.1, 211.86 66.55, 277.56 -3.05 M108.51 193.9 C178.38 115.23, 244.08 38.96, 277.33 1.02 M119.92 189.62 C157.49 153.45, 187.64 111.02, 285.09 1.73 M120.23 191.06 C167.92 141.31, 210.87 86.52, 284.86 0.28 M127.21 192.69 C190.65 120.67, 250.91 50.02, 297.43 0.78 M128.34 193.82 C171.17 139.08, 217.36 86.3, 296.62 0.3 M137.13 193.55 C196.62 126.51, 256.3 58.1, 309.29 0.21 M140.11 193.21 C195.4 131.57, 249.4 68.13, 306.6 -1.71 M152.66 193.22 C187.51 149.78, 223.65 111.41, 317.46 1.99 M150.23 190.59 C211.8 128.22, 269.23 61.9, 319.26 -1.81 M159.47 195.12 C224.73 116.21, 293.03 34.61, 326.5 -1.69 M160.64 190.8 C197.73 145.03, 237.31 99.96, 327.3 0.53 M170.42 192.85 C202.09 152.73, 239.04 110.17, 341.44 -1.71 M171.22 192.06 C205.54 152.21, 237.51 111.91, 337.94 -1.2 M185.89 190.45 C243.81 120.86, 306.58 48.49, 346.91 -2.86 M183.42 191.99 C250.03 116.49, 315.75 39.35, 350.03 -0.77 M192.98 190.3 C223.38 150.98, 260.13 113.05, 360.76 -0.09 M194.22 190.51 C232.78 144.13, 271.86 94.66, 360.28 1.16 M203.57 193.87 C244.28 145.87, 282.22 101.64, 370.99 0.83 M202.97 192.61 C242.96 146.2, 281.25 99.79, 369.5 1.16 M214.63 189.59 C254.8 144.91, 298.45 95.17, 382.95 0.63 M215.06 191.79 C268.07 129.22, 322.42 68.47, 382.31 -0.65 M226.84 192.56 C269.44 133.33, 317.71 77.02, 391.94 1.58 M226.14 192.32 C268.33 142.06, 307.24 97.51, 390.79 -0.26 M237.33 193.51 C286.94 126.09, 339.58 62.92, 401.83 1.79 M235.44 192.63 C292.76 127.67, 348.84 66.76, 403.96 0.09 M245.31 191.97 C282.3 152.43, 318.06 106.6, 411.32 2.57 M246.23 191.4 C293.86 133.28, 339.77 77.68, 412.58 1.24 M257.77 190.66 C296.12 155.08, 328.32 111.08, 426.05 2.72 M256.46 190.37 C322.23 116.82, 384.51 47.41, 425.2 0.21 M268.58 190.56 C313.54 136.8, 356.35 85.23, 431.92 -0.67 M268.24 191.48 C321.47 130.08, 378.47 65.54, 432.92 -0.45 M279.71 195.13 C314.12 148.23, 345.88 108.22, 446.04 1.56 M277.93 193.43 C317.47 148, 354.63 105.09, 445.41 0.39 M290.03 189.83 C328.89 148.54, 373.69 101.32, 457.71 -0.92 M288.79 192.55 C346.06 124.93, 405.42 55.66, 455.73 -1.12 M297.11 191.61 C338.99 148.07, 379.33 100.95, 466.4 1.71 M297.82 192.37 C345.1 140.59, 392.64 87.3, 466.59 -1.33 M308.73 192.29 C365.86 135.16, 418.16 71.41, 474.5 1.38 M308.43 190.98 C370.73 121.52, 433.91 52.39, 477.85 0.83 M322.61 191.71 C369.48 129.74, 424.6 69.27, 486.47 -1.13 M321.2 193.59 C383.19 116.66, 443.62 45.13, 486.89 0.19 M332.12 192.05 C397.18 112.85, 459.05 39.54, 495.15 -1.9 M330.97 192.71 C369.67 145.23, 408.05 103.56, 498.75 1.13 M344.84 192.18 C383.84 138.12, 430.16 89.35, 506.79 0.48 M340.27 193.62 C407.38 114.03, 469.17 41.68, 510.34 0.98 M349.42 194.92 C420.93 116.68, 484.73 43.5, 520.83 -0.71 M353.16 191.34 C387.37 147.68, 425.09 102.24, 520.54 -0.66 M360.08 194.97 C408.32 142.71, 446.65 92.24, 529.12 -0.17 M362.79 192.84 C397.39 152.03, 434.78 111.15, 530.65 0.89 M370.48 192.57 C431.08 126.5, 493.68 54, 540.97 0.88 M374.37 190.78 C424.11 132.51, 474.25 76.28, 541.48 -1.14 M385.27 194.39 C423.04 146.65, 464.73 101.23, 549.98 1.93 M382.98 192.23 C419.14 148.15, 458.88 108.14, 550.62 0.43 M393.42 194.86 C446.73 130.26, 496.82 69.98, 559.15 -2.44 M393.36 192.33 C462.17 116.29, 526.51 43.05, 562.45 0.49 M406.21 189.99 C454.72 138.89, 497.1 81.26, 573.55 -2.37 M404.15 193.37 C472.23 115.13, 536.16 39.35, 572.46 0.65 M417.59 191.03 C448.75 152.23, 486.24 108.23, 579.5 2.98 M414.75 191.4 C472.13 129.42, 529.95 65.24, 583.08 -0.12 M429.29 193.04 C470.33 136.82, 521.48 84.51, 591.64 3.21 M425.77 192 C483.52 131.03, 537.4 66.2, 593.87 0.79 M437.05 195 C477.77 149.09, 515.56 99.13, 602.89 1.43 M436.12 190.49 C496.51 124.53, 555.74 55.82, 604.36 0.77 M449.22 194.21 C484.55 145.1, 526.37 99.13, 612.17 -0.88 M446.71 190.92 C496.98 128.42, 551.35 68.26, 613.91 1.61 M460.05 193.56 C501.95 141.87, 551.66 90.08, 622.93 -2.33 M457.62 192.72 C516.59 127.53, 572.02 61.77, 624.69 0.04 M468.34 189.39 C531.63 124.77, 585.11 58.6, 635.85 -0.78 M468.47 190.29 C511.75 143.46, 550.93 99.16, 635.56 0.32 M476.61 191.73 C542.69 121.09, 609.55 47.12, 648.06 0.97 M478.84 192.07 C518.04 151.05, 551.34 109.29, 645.77 0.88 M490.27 192.72 C554.21 120.35, 613.28 50.53, 658.78 2.46 M491.93 190.91 C532.78 146.64, 570.9 101.03, 658.59 0.41 M503.22 194.07 C541.27 148.56, 570.81 110.77, 668.52 -0.06 M501.32 193.63 C553.04 136.92, 602.6 79.44, 668.7 0.65 M512.65 191.94 C573.92 118.98, 640.1 41.91, 678.27 0.08 M510.24 191.68 C556.97 135.4, 604.6 80.38, 678.91 -0.46 M520.71 195.17 C575.68 129.74, 633.16 61.61, 688.7 1.41 M521.51 191.12 C561.26 149.62, 597.76 106.61, 687.49 0.53 M529.87 190.77 C580.47 141.03, 629.04 85.86, 699.33 1.56 M530.87 193.07 C565.47 152.6, 598.67 111.29, 698.35 -0.8 M541.5 190.71 C593.77 135.25, 646.21 70, 707.74 -1.92 M542.95 190.81 C608.99 118.8, 675.79 41.79, 711.72 -0.92 M554.97 193.96 C610.08 132.91, 664.32 71.55, 721.69 2.19 M552.22 191.99 C589.56 149.59, 626.77 107.77, 721.32 1.48 M566.95 193.76 C605.86 139.7, 654.66 89.36, 732.44 0.8 M562.82 192.37 C611.75 135.64, 660.52 79.64, 730.95 -1.32 M576.98 191.35 C620.01 140.77, 664.88 91.78, 739.83 2.54 M576 191.62 C617.08 146.46, 655.13 103.1, 741.93 -0.63 M586.7 190.34 C635.47 142.03, 677.8 85.27, 751.44 -0.17 M584.1 192.85 C622.75 154.59, 656.82 113.7, 753.55 -0.87 M599.06 191 C647.12 137.51, 689.9 83.37, 762.4 1.97 M596.82 192.55 C653.79 120.48, 714.05 51.75, 763.41 -0.58 M604.53 191.12 C673.98 119.01, 741.81 40.7, 773.98 -2.85 M605.99 193.12 C652.91 132.89, 703.29 78.02, 774.34 0.78 M619.14 193.25 C669.45 134.03, 719.39 73.34, 786.3 -1.41 M618.39 192.74 C673.74 122.56, 735.02 51.58, 785.11 -0.92 M625.44 192.62 C692.52 115.64, 761.11 39.62, 797.56 0 M627.02 191.44 C681.44 126.28, 739.72 61.98, 794.02 -1.85 M636.36 190.8 C677.95 148.23, 714.12 102.91, 803.19 2.28 M637.37 190.73 C679.05 147.79, 717.36 98.93, 805.81 -0.38 M649.17 190.13 C695.22 136.94, 742.49 88.47, 813.81 2.2 M648.41 193.14 C708.67 128.47, 763.31 63.66, 815.23 0.05 M657.53 194.51 C704.92 141.2, 756.1 86.96, 824.69 3.05 M659.49 192.16 C702.05 145.34, 743.07 101.93, 826.25 0.46 M670.2 190.71 C728.77 126.1, 783.47 61.54, 836.91 0.59 M670.73 191.21 C730.02 123.7, 786.2 53.98, 835.54 0.71 M684.25 194.64 C728.23 140.98, 773.61 85.23, 843.55 3.34 M680.17 193.58 C718.59 148.95, 754.35 110.2, 845.89 2.37 M690.65 193.77 C734.18 138.81, 784.35 79.73, 847.87 14.58 M690.68 192.22 C734.75 143.76, 779.75 94.1, 846.54 15.55 M699.59 193.22 C737.75 152.45, 763.65 119.16, 845.16 28.33 M704.09 192.1 C745.53 147.7, 788.42 98.49, 845.27 27.34 M714.16 190.62 C741.62 154.79, 771.22 121.81, 847.75 40.75 M714.36 190.15 C744.13 153.84, 776.87 115.92, 845.07 38.59 M719.9 191.29 C743.81 165.1, 773.53 135.12, 844.09 48.12 M724.75 192.72 C751.96 164.19, 775.82 134.04, 845.58 51.47 M730.68 192.47 C766.47 155.19, 798.08 114.82, 847.44 65.16 M732.72 194.43 C759.33 165.09, 786.38 135.22, 846.21 66.19 M746.91 194.81 C777.92 151.8, 812.62 115.78, 844.64 75.73 M742.59 192.16 C780.38 151.83, 815.75 108.84, 845.13 76.65 M756.12 193.26 C780.81 157.65, 809.47 127.81, 845.92 85.67 M756.13 190.53 C773.3 168.1, 794.6 147.64, 844.02 86.88 M763.44 194.68 C789.3 162.5, 818.99 131.28, 846.76 97 M764.56 193.93 C793.71 157.05, 820 125.09, 847.18 99.46 M774.61 194.81 C790.32 178.31, 804.89 155.24, 842.21 109.62 M777.05 194.09 C794.11 172.01, 812.58 153, 845.37 111.78 M786.95 195.33 C806.52 174.1, 823.75 148.39, 841.3 123.13 M785.24 193.5 C800.99 171.6, 819.02 153.23, 843.64 124.26 M796.36 188.81 C814.06 174.75, 827.49 155.35, 844.59 134.72 M795.71 192.96 C809.12 177.96, 819.19 168.32, 844.46 136.86 M804.35 191.72 C822.54 180.11, 835.27 165.59, 847.27 152.8 M806.5 191.07 C820.98 175.46, 837.52 158.74, 844.29 149.12 M817.02 189.45 C823.07 186.7, 829.82 177.45, 848.79 162.91 M819.58 191.72 C826.03 183.32, 830.75 175.22, 844.7 160.58 M828.07 193.29 C837.91 184.53, 837.53 175.92, 843.18 169.48 M829.42 191.61 C834.6 187.14, 836.09 181.64, 844.21 175.13 M840.68 192.69 C841.17 189.18, 841.64 187.16, 843.69 187.54 M839.72 192 C840.73 190.65, 843.02 189.27, 845.57 185.76" stroke="#ffc9c9" stroke-width="1" fill="none"></path><path d="M-0.69 0.94 C313.96 2.51, 629.51 1.85, 843.37 1.13 M0.06 -0.58 C236.06 -0.07, 470.5 -1.12, 841.41 0.51 M840.42 2.63 C839 59.56, 839.8 124.5, 845.52 190.29 M841.77 -1.6 C842.43 74.86, 842.5 149.89, 843.92 189.16 M841.12 190.66 C563.93 184.49, 284.85 186.47, -1.47 191.55 M841.99 190.35 C517.02 183.09, 193.46 184.16, 0.3 189.61 M-0.32 188.65 C2.46 137.14, -5.19 90.13, 0.49 -1.05 M0.65 188.52 C2.85 136.66, -0.51 85.9, -0.53 0.06" stroke="#1e1e1e" stroke-width="2" fill="none"></path></g><g transform="translate(332.29166412353516 587.5) rotate(0 115.70833587646484 22.5)"><text x="115.70833587646484" y="0" font-family="Virgil, Segoe UI Emoji" font-size="36px" fill="#1e1e1e" text-anchor="middle" style="white-space: pre;" direction="ltr" dominant-baseline="text-before-edge">Index Commit</text></g><g stroke-linecap="round" transform="translate(10 10) rotate(0 421 95)"><path d="M0 0 C0 0, 0 0, 0 0 M0 0 C0 0, 0 0, 0 0 M-1.84 11.32 C1.91 10.34, 8.37 4.33, 10.98 0.78 M1.5 13.4 C5.54 7.88, 8.27 1.64, 10.59 -0.35 M-0.28 21.76 C5.22 17.81, 10.66 11.22, 24.23 -1.21 M0.33 24.1 C4.87 18.48, 11.66 10.71, 19.92 1.58 M1.62 39.99 C6.51 24.23, 21.25 13.31, 31.49 0.22 M0.45 38.1 C11.26 24.27, 25.46 8.63, 32.59 0.87 M-3.69 52.66 C9.94 39.38, 23.85 27.08, 38.82 -3.24 M1.48 47.91 C15.23 30.19, 32.12 8.63, 43.65 1.26 M-0.64 61.79 C8.77 47.31, 27.33 36.62, 51.79 1.83 M-1.31 59.21 C10.52 45.08, 24.27 33.47, 54.61 1.4 M2.58 74.53 C10.74 53.28, 32.29 38.45, 66.56 3.77 M-1.54 71.78 C22.36 47.92, 39.75 26.07, 61.92 -1.79 M-3.6 88.97 C26.03 55.21, 49.26 30.03, 76.89 -1.22 M2.14 83.66 C22.19 57.79, 47.4 30.19, 73.49 -1.6 M0.16 95.83 C33.59 58.22, 67.54 23.53, 81.13 0.01 M-2.16 99.45 C35.05 60.27, 67.55 18.52, 85.19 -2 M-0.23 108.49 C20.94 86.46, 40.39 65.55, 97.22 -1.5 M-0.39 110.79 C26.75 79.84, 50.7 50.07, 97.34 -2.18 M-1.22 120.49 C20.82 92.3, 44.03 67.28, 105.71 -3.8 M0 120.37 C30.75 86.4, 61.05 55.37, 107.2 -1.02 M3.96 135.53 C46.98 76.39, 95.8 25.77, 120.06 -0.3 M1.14 134.43 C35.26 92.29, 73.8 48.68, 116.84 -0.86 M-0.29 145.21 C31.98 104.5, 71.31 64.28, 124.32 2.26 M-1.36 147 C28.14 111.31, 54.02 77.22, 128.25 0.99 M2.04 155.27 C51.45 98.13, 107.35 34.64, 139.84 -2.35 M1.2 160.02 C49.02 103.67, 99.44 44.38, 136.1 0.3 M-1.95 172.86 C55.3 106.02, 115.2 38.42, 148.41 0.38 M-1.12 172.32 C51.4 110, 104.94 47.65, 149.64 -1.36 M0.34 185.87 C36.69 139.48, 75.96 94.25, 159.59 2.55 M0.75 183.28 C53.77 121.32, 106.6 62.16, 159.57 -1.38 M1.93 192.68 C52.63 138.75, 97.14 83.93, 172.43 -1.94 M1.33 193.41 C40.63 147.44, 80.37 104.22, 170.64 0.41 M15.75 189.09 C75.61 117.65, 137.84 45.2, 182.69 1.89 M14.37 191.37 C45.47 154.21, 82.06 113.47, 181.15 1.7 M24.97 193.83 C63.35 149.42, 103.57 103.62, 188.14 -1.25 M24.55 191.31 C63.3 151.82, 95.92 111.45, 190.19 0.5 M35.04 193.85 C94.78 128.41, 150.48 58.69, 200.85 2.49 M34.25 192.88 C95.96 119.6, 158.72 49.09, 201.29 1.09 M41.72 189.95 C102.83 129.97, 156.4 70.47, 213.9 -1.44 M45.78 193.27 C97.66 127.03, 154.25 61.83, 213.06 0.7 M52.22 195.62 C110.18 129.34, 163.3 64.83, 220.08 3.06 M54.59 191.38 C105.82 141.24, 150.22 85.21, 222.89 -1.16 M67.6 189.58 C132.99 121.75, 189.57 55.03, 230.43 -1.13 M65.23 190.87 C113.27 140.93, 155.65 89.72, 233.76 0.08 M74.85 194.93 C115.11 152.6, 155.71 108.73, 241.11 1.11 M74.93 193.98 C110.49 154.42, 146.09 113.8, 245.01 0.77 M84.9 189.41 C148.45 125.58, 203.84 55.56, 252.02 -0.19 M86.96 191.5 C135.04 137.99, 182.26 79.71, 255.91 1.53 M99.44 190.31 C145.53 139.32, 190.85 87.98, 265.93 -0.56 M98.06 191.43 C144.71 138.71, 188.38 86.36, 266.12 0.4 M110.14 190.6 C144.08 152.03, 180.83 106.86, 274.78 0.36 M108.61 192.72 C168.93 123.82, 226.74 57.17, 276.05 -1.13 M117.24 192.04 C176.46 129.81, 230.03 64.08, 284.76 -0.39 M119.73 191.3 C157.73 148.49, 198.93 102.19, 287.3 -1.71 M128.72 193.1 C181.91 139.46, 229.97 82.35, 296.03 -1.78 M130.49 192.67 C166.35 152.22, 203.29 110.72, 296.57 -0.57 M140.11 189.75 C203.7 115.63, 263.11 44.42, 308.46 1.99 M141.52 192.04 C188.73 141.63, 233.59 86.36, 309.03 -1.13 M153.1 189.19 C191.74 146.59, 234.74 98.54, 320.76 2.87 M152.24 193.35 C201.62 133.34, 252.41 72.39, 319.29 -1.75 M161.75 191.28 C223.27 121.21, 286.85 44.13, 329.7 -0.75 M161.2 192.7 C200.65 148.6, 240.39 103.06, 327.97 0.69 M171.11 189.33 C223.36 136.66, 273.34 81.07, 342.24 -3.33 M172.96 190.89 C215.59 143.15, 260.06 93.22, 338.91 0.65 M183.5 190.33 C218.6 145.86, 259.6 99.39, 348.18 3.02 M182.37 192.97 C242.86 118.78, 304.14 48.23, 349.19 0.44 M191.18 189.85 C239.61 139.78, 283 87.52, 360.78 0.35 M194.33 191.73 C256.33 120.74, 316.08 52.03, 358.61 0.37 M201.46 192.31 C240.22 145.31, 280.83 100.22, 373.23 2.04 M204.82 193.12 C271.64 118.31, 336.1 42.03, 369.44 -0.39 M216.48 192.32 C265.49 132.85, 317.87 71.26, 379.85 -1.21 M214.2 193.21 C275.86 127.32, 333.88 60.39, 382.92 -0.77 M225.9 194.95 C265.35 152.29, 303.08 104.77, 394.04 -0.96 M224.47 190.77 C264.6 149.52, 304.77 102.23, 392.58 -0.67 M238.48 190.62 C291.3 126.91, 350.64 59.63, 402.17 -2.62 M236.31 193.29 C299.17 124.2, 359.3 53.15, 404.06 -1.35 M248.87 194.77 C279.14 150.6, 314.12 110.29, 414.58 1.27 M246.36 190.68 C294.59 134.64, 343.7 75.98, 412.83 0.59 M256.28 190.37 C301.61 140.84, 342.26 94.74, 425.87 -0.5 M257.28 190.51 C298.07 148.05, 334.48 106.56, 424.05 -0.08 M269.45 194.29 C325.59 122.34, 381.42 54.97, 433.58 1.8 M267.79 192.45 C331.41 121.03, 396.39 46.35, 433.51 -1.5 M276.08 190.28 C328.56 136.23, 381.26 78.78, 443.81 0.85 M278.96 191.28 C338.03 125.3, 395.19 57.69, 444.27 -1.54 M289.91 192.58 C351.18 122.05, 414.31 47.08, 457.47 -1.03 M287.43 194.02 C347.17 129.84, 401.19 67.14, 457.32 -1.5 M300.73 192 C345.17 138.44, 391.21 81.65, 469.49 2.41 M298.11 193.84 C335.33 149.98, 373.34 106.33, 465.52 0 M311.76 189.74 C347.3 155.19, 381.65 114.04, 474.47 2.84 M311.05 193.01 C352.42 144.1, 394.64 94.64, 476.66 0.14 M319.41 191.8 C383.21 117.53, 447.83 47.69, 485.26 -2.54 M321.81 192.86 C379.02 125.5, 437.81 58.33, 487.97 1.18 M331.91 190.37 C374.81 142.97, 415.76 97.39, 499.86 2.85 M331.57 193.31 C380.92 137.64, 426.41 81.9, 499.49 0.38 M342.59 190.46 C396.03 127, 449.22 69.66, 507.03 -2.52 M341.07 192.55 C391.74 141.63, 436.35 84.84, 507.97 -0.75 M354.96 191.39 C412.89 122.62, 473.55 58, 517.84 0.19 M350.99 192.99 C414.7 120.54, 476.92 49.51, 520.23 -0.02 M362.51 193.99 C397.17 150.4, 433.72 107.08, 532.52 -0.2 M362.41 191.27 C393.85 154.29, 427.59 113.42, 530.94 -1.48 M373.77 194.99 C422.04 134.07, 467.58 79.55, 539.67 1.26 M373.93 190.7 C428.03 126.17, 485.25 59.68, 542.4 0.35 M385.6 194.26 C440.37 134.38, 494.08 70.69, 554.2 0.53 M385.32 191.22 C437.95 126.87, 495.72 62.18, 552.02 0.68 M395.36 189.19 C423.2 152.65, 463.84 111.42, 564.87 -1.65 M394.71 192.17 C429.29 148.34, 467.48 108.73, 562.44 0.23 M406.54 194.87 C447.36 141.63, 490.9 90.57, 572.21 1.04 M405.43 191.95 C464.17 127.4, 518.35 62.09, 572.19 -1.68 M415.02 193.16 C450.1 153.39, 482.94 116.46, 580.62 2.68 M416.74 190.8 C463.71 137.03, 512.9 81.05, 581.98 -0.26 M427.7 191.72 C464.99 150.29, 497.38 110.6, 593.72 2.25 M427.46 190.42 C476.76 134.1, 526.36 73.62, 594.42 1.58 M435.73 192.49 C498.71 126.5, 553.54 60.21, 603.13 2.58 M436.37 193.55 C483.83 141.9, 527.79 90.94, 604.05 0.59 M446.18 192.46 C503.12 124.59, 563.22 61.13, 616.15 1.59 M449.08 190.64 C512.46 115.88, 577.03 40.07, 613.32 -0.5 M461.69 190.99 C504.5 140.94, 551.1 90.62, 621.97 0.37 M459.03 191.78 C508.8 133.06, 557.61 73.47, 625.84 0.86 M466.79 190.57 C523.42 125.93, 584.18 60.54, 636.15 -2.47 M470.55 190.75 C528.84 126.6, 590.64 56.68, 637.11 0.2 M478.87 191.23 C536.36 122.37, 598.78 53.06, 648.02 2.91 M479.84 190.43 C513.76 152.74, 546.79 114.93, 647.84 1.76 M489.08 191.27 C535.25 132.87, 590.16 74.69, 658.73 -0.43 M491.55 192.76 C527.1 153.42, 561.18 112.71, 657.89 -1.31 M499.72 195.35 C562.84 122.13, 626.34 47.02, 667.46 2.85 M499.14 192.55 C568.06 117.83, 630.74 43.98, 666.68 -1.42 M513.12 192.84 C547.73 146.62, 591.81 99.11, 677.15 2.98 M510.5 193.53 C544.52 152.21, 577.83 113.96, 676.83 0.32 M520.43 195.52 C562.08 144.93, 599.4 101.57, 687.12 -1.85 M521.85 193.05 C578.87 129.02, 631.2 65.07, 688.11 0.21 M529.27 190.08 C592.2 124.48, 655.2 48.22, 698.83 1.86 M533.64 191.55 C569.86 151.52, 604.31 108.84, 701.01 1.3 M542.91 191.44 C577.43 152.72, 616.66 106.57, 708.55 -1.56 M543.87 192.97 C592.68 132.75, 646.44 73.23, 710.78 -0.05 M552.97 191.79 C598.49 142.4, 638.73 96.55, 719.48 2.04 M554.94 191.38 C614.81 119.44, 680.23 45.72, 720.69 -1.53 M564.48 193.78 C626.16 121.26, 684.89 50.4, 734.52 -0.75 M564.36 193.2 C615.3 134.42, 666.8 73.03, 732.76 1.4 M575.68 191.87 C611.53 152.64, 649.75 116.11, 742.48 1.64 M574.87 190.96 C616.97 144.32, 660.72 95.16, 741.71 -1.02 M583.67 192.6 C632.75 136.12, 677.23 83.19, 749.62 1.33 M585.12 191.97 C634.02 135.13, 680.08 83.34, 751.5 -0.92 M596.54 189.46 C649.27 130.25, 703.04 66.78, 765.94 -2.4 M596.55 192.08 C635.68 144.29, 678.91 99.55, 762.84 0.89 M606.7 189.66 C662.23 128.43, 721.96 60.3, 771.99 -2.23 M607.34 191.4 C649.64 144.5, 690.65 95.25, 773.55 1.04 M615.9 188.97 C656.75 143.01, 693.16 98.3, 782.74 -1.44 M616.02 190.69 C679.68 121.91, 743.76 52.26, 785.47 -0.38 M628.03 192 C673.24 141, 714.99 90.86, 795.08 -0.15 M628.37 190.94 C672.57 139.73, 715.49 92.56, 795.14 -0.22 M641.78 193.58 C705.9 117.03, 769.09 46.14, 806.37 -0.98 M638.4 193 C688.39 134.03, 737.51 73.91, 807.15 0.89 M649.85 192.5 C705.19 126.77, 765.62 60.31, 812.95 -1.03 M648.18 190.66 C683.71 150.61, 721.24 107.51, 814.48 -1.15 M657.55 192.33 C709.93 135.4, 761.41 77.1, 824.98 -0.52 M658.52 192.94 C726.61 120.06, 787.09 48.56, 827.41 -1.13 M669.06 189.29 C710.8 141.97, 751.76 98.57, 835.74 2.49 M669.39 191.26 C713.85 147.42, 754.84 102.24, 837.62 0.16 M680.13 192.47 C740.95 126.04, 799.65 56.51, 846.74 6.5 M680.3 191.47 C734.71 135.97, 784.69 75.41, 844.5 2 M690.19 192.26 C751.72 126.23, 807.81 59.48, 846.84 14.43 M690.71 190.72 C740.61 137.52, 788.13 83.31, 845.19 13.79 M701.75 193.65 C736.05 151.79, 769.08 110.13, 846.52 29.89 M703.94 193.56 C746.81 136.37, 790.67 83.74, 844.15 27.01 M712.74 190.46 C752.9 148.22, 794.66 95.22, 842.92 42.03 M713.75 191 C740.81 156.61, 770.86 122.48, 846.02 38.44 M721.54 195.09 C752.96 160.79, 778.02 132.19, 848.42 50.47 M721.07 191.96 C751.88 163.11, 776.54 134.26, 846.79 51.21 M737.18 192.54 C760.14 169.03, 782.79 142, 844.51 61.35 M735.37 192.16 C758.2 167.96, 782.98 139.29, 843.23 64.73 M742.3 191.06 C775.37 153.03, 801.74 120.67, 843.84 78.28 M742.72 191.78 C769.95 161.44, 792.92 134.89, 845.41 78.07 M758.8 189.22 C788.99 156.95, 820.18 120.43, 847.04 90.75 M756.69 192.6 C786.18 152.4, 820.25 113.93, 844.82 86.44 M766.2 193.5 C786.57 165.27, 809.68 141.27, 843.94 96.39 M766.31 194.22 C791.81 162.98, 818.3 133.78, 845.59 101.61 M772.6 195.29 C795.04 171.95, 811.35 153.01, 843.99 110.74 M776.59 193.55 C791.55 176.02, 806.52 160.06, 844.28 112.16 M789.68 195.88 C805.56 174.68, 821.96 147.8, 842.58 129 M784.95 192.26 C807.92 165.21, 829.12 141.47, 845.76 123.7 M799.74 191.46 C813.66 179.98, 823.84 163.81, 846.64 140.02 M797.8 192.36 C811.76 177.4, 822.92 159.55, 846.3 135.37 M810.66 190.14 C816.79 179.46, 827.42 170.93, 845.75 147.8 M806.98 191.62 C823.57 173.98, 836.33 160.01, 846.19 147.9 M814.92 188.91 C821.82 180.51, 829.68 171.53, 845.72 161.52 M818.29 191.12 C829.63 181.18, 840.87 169.48, 844.79 160.03 M828.58 190.71 C833.46 184.67, 837.23 181.24, 842.97 173.24 M827.99 190.75 C834.98 186.39, 840.02 180.21, 844.45 172.81 M840.89 191.05 C842.53 190.36, 843.38 189.1, 845.85 185.17 M839.68 192.38 C841.39 190.24, 844.49 188.65, 845.63 186.03" stroke="#a5d8ff" stroke-width="1" fill="none"></path><path d="M-0.04 -0.84 C294.36 -2.94, 592.16 -5.42, 843.44 1.03 M0.35 0.46 C301.98 -1.32, 604.15 -2.72, 841.39 0.52 M841.01 -2.15 C843.63 66.23, 843.53 128.42, 839.51 188.28 M842.04 -0.49 C841.63 40.85, 840.45 80.93, 841.39 191.51 M840.55 188.98 C554.77 196.46, 265.9 196.85, 0.22 189.06 M841.77 189.77 C648.14 184.06, 455.89 184.28, -0.13 189.72 M-2.36 189.57 C0.05 121.09, -1.22 56.18, -2.28 1.65 M-1.27 188.57 C2.53 133.29, 4.21 78.67, 1.64 1.03" stroke="#1e1e1e" stroke-width="2" fill="none"></path></g><g transform="translate(302.6666717529297 82.5) rotate(0 128.3333282470703 22.5)"><text x="128.3333282470703" y="0" font-family="Virgil, Segoe UI Emoji" font-size="36px" fill="#1e1e1e" text-anchor="middle" style="white-space: pre;" direction="ltr" dominant-baseline="text-before-edge">Storage Shard</text></g><g stroke-linecap="round"><g transform="translate(425 217) rotate(0 2.317795143761032 138.21962441635878)"><path d="M-2.83 -1.9 C-0.65 58.97, 2.98 122.51, 6.46 278.34 M-1.04 1.32 C7.19 91.76, 8.72 181.04, 6.61 277.97" stroke="#1e1e1e" stroke-width="2" fill="none"></path></g><g transform="translate(425 217) rotate(0 2.317795143761032 138.21962441635878)"><path d="M-7.05 247.21 C-2.35 254.53, 2.28 265.28, 4.61 278.41 M-4.72 251.39 C2 260.61, 3.87 268.29, 4.81 277.92" stroke="#1e1e1e" stroke-width="2" fill="none"></path></g><g transform="translate(425 217) rotate(0 2.317795143761032 138.21962441635878)"><path d="M13.47 247.41 C13.75 254.49, 13.96 265.2, 4.61 278.41 M15.8 251.59 C15.84 260.41, 11.03 268.02, 4.81 277.92" stroke="#1e1e1e" stroke-width="2" fill="none"></path></g></g><mask></mask><g transform="translate(451 295) rotate(0 379.4166564941406 45)"><text x="0" y="0" font-family="Virgil, Segoe UI Emoji" font-size="36px" fill="#1e1e1e" text-anchor="start" style="white-space: pre;" direction="ltr" dominant-baseline="text-before-edge">Data passed to indexer with the position </text><text x="0" y="45" font-family="Virgil, Segoe UI Emoji" font-size="36px" fill="#1e1e1e" text-anchor="start" style="white-space: pre;" direction="ltr" dominant-baseline="text-before-edge">        the block was written at.</text></g><g stroke-linecap="round" transform="translate(247 849) rotate(0 181 160)"><path d="M-0.32 161.37 C-0.32 161.37, -0.32 161.37, -0.32 161.37 M-0.32 161.37 C-0.32 161.37, -0.32 161.37, -0.32 161.37 M6.22 169.36 C16.11 155.95, 32.09 134.52, 45.82 119.5 M6.78 164.7 C19.89 150.15, 33.79 135.28, 43.99 121.08 M15.53 169.38 C39.38 132.8, 73.89 104.68, 87.98 80.62 M10.9 170.12 C27.9 152.83, 47.87 131.35, 93.64 81.23 M18.69 179.23 C39.04 147.03, 68.36 119.62, 138.01 42.9 M19.27 178.55 C40.46 150.7, 65.26 122.26, 136.88 38.99 M25.86 183.17 C65.64 128.14, 109.65 75.41, 184.38 -1.42 M23.06 182.98 C79.94 116.22, 135.54 53.25, 181 -0.82 M31.18 188.78 C75.29 141.43, 110.42 96.14, 188.82 8.84 M31.42 187.29 C63.09 145.72, 100.62 103.1, 189.58 6.49 M33.45 195.05 C73.36 145.14, 116.58 101.46, 196.92 7.96 M35.32 192.24 C72.35 151.62, 111.87 104.5, 194.58 11.63 M42.11 195.45 C77.05 150.6, 115.72 113.01, 199.27 16.13 M42.53 196.61 C106.39 127.32, 166.42 58.57, 200.11 16.43 M49.65 204.98 C100.65 141.5, 151.95 76.26, 208.6 22.72 M47.92 203.15 C95.61 153.85, 139.48 100.79, 207.74 22.97 M57.32 207.78 C110 143.66, 167.98 78.27, 212.33 26.96 M53.78 208.21 C97.54 156.45, 142.26 103.78, 213.6 26.48 M61.09 211.24 C96.9 167.81, 133.38 126.79, 218.34 32.2 M60.31 214.64 C108.25 161.44, 156.34 107.05, 218.79 31.62 M64.05 220.12 C118.27 162.25, 165.84 101.81, 227.51 40.03 M65.98 218.03 C119.93 157.5, 175.49 93.67, 223.09 38.69 M68.97 224.18 C125.9 157.31, 179.98 97.65, 232.28 45.24 M71.32 222.94 C123.24 162.92, 178.88 101.98, 228.09 44.02 M77.44 232.22 C121.42 184.79, 160.41 131.3, 238.3 46.9 M79.32 229.23 C118.56 180.94, 160.98 134.79, 236.93 49.82 M82.38 232.96 C126.49 181.16, 174.2 129.49, 239.8 53.81 M85.83 234.9 C134.53 176.68, 186.14 119.54, 240.69 54.99 M87.21 242.55 C133.68 195.64, 172.18 146.58, 248 62.25 M90.02 239 C146.25 176.17, 199.35 116.17, 248.19 58.34 M98.35 245.42 C157.34 177.84, 211.33 112.6, 256.24 64.26 M94.75 244.64 C149.19 178.87, 207.11 112.45, 252.36 65.58 M104.37 248.38 C151.45 196.9, 197.25 139.37, 259.24 68.46 M103.68 251.78 C160.98 189.68, 213.77 126.66, 260.67 68.92 M108.5 254.87 C157.01 198.42, 206.31 138.51, 265.5 74.24 M108.36 256.93 C145.41 212.17, 184.99 168.74, 265.58 73.34 M114.47 259.04 C150.92 224.09, 180.99 184.26, 269.87 79.24 M115.29 262.64 C155.54 209.1, 199.83 162.9, 271.55 79.47 M119.01 266.66 C159.99 230.5, 193.78 189.58, 279.38 86.84 M119.67 267.16 C178.1 200.08, 236.77 135.11, 278.86 86.5 M124.33 269.25 C179.26 204.21, 234.76 145.67, 285.03 94.46 M125.86 270.62 C179.79 207.99, 230.69 148.1, 283.36 92.57 M130.65 278.26 C181.52 223.09, 227.83 167.09, 290.31 97.97 M131.05 278.01 C194.44 204.15, 258.05 134.74, 289.46 97.95 M135.35 279.2 C170.75 243.84, 205.94 205.09, 293.04 103.8 M139.12 282.04 C170.83 243.44, 202.28 203.33, 296.67 102.52 M145.47 285.87 C199.37 225.96, 256.76 158.33, 300.56 106.69 M144.26 286.1 C174.39 246.78, 208.83 207.57, 302.61 105.63 M150.18 294.47 C197.65 240.37, 243.77 188.32, 308.19 111.32 M151.5 293.85 C181.16 256.3, 215.39 219, 306.1 113.17 M153.37 297.78 C211.87 237.34, 267.86 170.17, 311.73 119.78 M157.07 298.73 C206.93 237.82, 260.63 176.97, 314.3 117.06 M159.38 306.03 C201.18 261.83, 235.26 222.7, 320.01 125.74 M162.15 303.62 C199.03 253.69, 239.9 210.3, 319.68 121.57 M165.57 307.69 C204.37 268.44, 236.38 229.05, 327.31 128.63 M169.98 307.08 C221.48 247.76, 271.37 190.26, 323.88 129.58 M174.79 310.31 C204.17 274.54, 243.93 232.37, 332.6 134.48 M176.26 312.9 C230.52 251.33, 286.07 190.9, 331.41 132.09 M181.19 321.4 C217.75 280.71, 249.81 239.75, 338.02 137.48 M179.54 319.69 C238.99 251.51, 300.26 184.49, 336.09 138.62 M189.46 322.47 C224.27 280.91, 264 233.92, 343.99 144.52 M188.38 323.83 C229.05 269.81, 275.85 218.91, 344.09 143.76 M233.46 284.95 C263.32 252.92, 288.81 219.2, 351.58 146.59 M230.78 283.67 C268.94 238.33, 308.95 194.51, 350.62 151.59 M276.82 245.49 C295.75 222.72, 317.2 203.47, 355.52 152.17 M278.53 244.81 C304.49 212.13, 328.91 183.9, 355.12 153.82 M324.11 199.9 C333.52 191.24, 340.87 184.3, 359.75 159.03 M323.71 201.23 C335.69 190.91, 344.23 177.94, 359.97 161.02" stroke="#b2f2bb" stroke-width="1" fill="none"></path><path d="M179.95 -0.5 C240.54 50.23, 296.11 102.47, 359.86 160.44 M182.8 -1.22 C240.37 54.15, 294.94 104.63, 362.77 161.21 M363.09 163.9 C325.85 195.09, 289 225.1, 182.02 320.21 M360.75 162.02 C293.14 221.88, 227.53 282.81, 181.13 321.45 M182 323.26 C134.23 270.88, 77.97 229.58, -0.95 162.72 M182.05 321.03 C127.29 273.37, 71.23 227.14, -0.44 162.5 M-3.15 159.01 C46.46 117.05, 95.44 75.94, 180.22 1.53 M1.15 161.59 C51.62 114.25, 103 70.11, 183.46 -1.46" stroke="#1e1e1e" stroke-width="2" fill="none"></path></g><g transform="translate(351.09375 986.5) rotate(0 76.90625 22.5)"><text x="76.90625" y="0" font-family="Virgil, Segoe UI Emoji" font-size="36px" fill="#1e1e1e" text-anchor="middle" style="white-space: pre;" direction="ltr" dominant-baseline="text-before-edge">Success?</text></g><g stroke-linecap="round"><g transform="translate(431.1919462330261 713) rotate(0 1.5753016882081283 57.95630106043973)"><path d="M1.35 -2.82 C-1.19 43.97, 5.32 81.29, 1.7 113.92 M0.4 -0.27 C-0.25 36.61, 3.78 70.22, 1.96 118.73" stroke="#1e1e1e" stroke-width="2" fill="none"></path></g><g transform="translate(431.1919462330261 713) rotate(0 1.5753016882081283 57.95630106043973)"><path d="M-6.71 87.63 C-7.95 103.4, 0.72 109.68, -0.18 115.7 M-7.66 90.18 C-6.25 100.7, -0.39 108.02, 0.08 120.51" stroke="#1e1e1e" stroke-width="2" fill="none"></path></g><g transform="translate(431.1919462330261 713) rotate(0 1.5753016882081283 57.95630106043973)"><path d="M13.81 87.81 C5.39 103.45, 6.87 109.67, -0.18 115.7 M12.86 90.36 C8.19 101.06, 7.96 108.33, 0.08 120.51" stroke="#1e1e1e" stroke-width="2" fill="none"></path></g></g><mask></mask><g mask="url(#mask-gTSt3s3rQCzn5qfCC7n42)" stroke-linecap="round"><g transform="translate(634.4765072843511 1015.6947943519572) rotate(0 120.98283982929934 -1.5003634463491835)"><path d="M-0.26 -2.89 C68.22 2.75, 130.19 -1.99, 240.16 -2.08 M-1.32 -0.11 C73.66 -3.09, 145.86 -2.61, 243.28 -0.52" stroke="#1e1e1e" stroke-width="2" fill="none"></path></g><g transform="translate(634.4765072843511 1015.6947943519572) rotate(0 120.98283982929934 -1.5003634463491835)"><path d="M214.6 5.78 C226.05 9.2, 229.55 1.17, 240.82 -1.84 M213.33 9.13 C224.38 6.09, 231.92 4.08, 244.58 0.05" stroke="#1e1e1e" stroke-width="2" fill="none"></path></g><g transform="translate(634.4765072843511 1015.6947943519572) rotate(0 120.98283982929934 -1.5003634463491835)"><path d="M214.96 -14.74 C226.12 -5.78, 229.53 -8.27, 240.82 -1.84 M213.68 -11.39 C224.29 -8.24, 231.73 -4.06, 244.58 0.05" stroke="#1e1e1e" stroke-width="2" fill="none"></path></g></g><mask id="mask-gTSt3s3rQCzn5qfCC7n42"><rect x="0" y="0" fill="#fff" width="976.6840308260435" height="1116.6767817725995"></rect><rect x="734.0490190551936" y="992.7038006416369" fill="#000" width="43.0625" height="45" opacity="1"></rect></mask><g transform="translate(734.0490190551936 992.7038006416369) rotate(0 21.4103280584568 21.49063026397107)"><text x="21.53125" y="0" font-family="Virgil, Segoe UI Emoji" font-size="36px" fill="#1e1e1e" text-anchor="middle" style="white-space: pre;" direction="ltr" dominant-baseline="text-before-edge">No</text></g><g mask="url(#mask-hATOIbQGur8fsus_xSIkz)" stroke-linecap="round"><g transform="translate(429 1187) rotate(0 1.8997073735154117 93.73266639560461)"><path d="M0.81 0.97 C-2.43 69.56, 3.87 128.53, 1.83 189.04 M1.95 -1.57 C5.29 43.61, 4.21 87.42, 0.23 187.68" stroke="#1e1e1e" stroke-width="2" fill="none"></path></g><g transform="translate(429 1187) rotate(0 1.8997073735154117 93.73266639560461)"><path d="M-8.2 160.12 C-8.47 172.84, 0.37 176.02, 0.06 188.72 M-7.06 157.57 C-4.75 165, -4.11 170.93, -1.54 187.37" stroke="#1e1e1e" stroke-width="2" fill="none"></path></g><g transform="translate(429 1187) rotate(0 1.8997073735154117 93.73266639560461)"><path d="M12.31 160.85 C4.87 173.54, 6.53 176.46, 0.06 188.72 M13.45 158.31 C10.88 165.16, 6.63 170.91, -1.54 187.37" stroke="#1e1e1e" stroke-width="2" fill="none"></path></g></g><mask id="mask-hATOIbQGur8fsus_xSIkz"><rect x="0" y="0" fill="#fff" width="531" height="1475"></rect><rect x="401.1354160308838" y="1258.5" fill="#000" width="57.72916793823242" height="45" opacity="1"></rect></mask><g transform="translate(401.1354160308838 1258.5) rotate(0 29.764291342631623 22.23266639560461)"><text x="28.86458396911621" y="0" font-family="Virgil, Segoe UI Emoji" font-size="36px" fill="#1e1e1e" text-anchor="middle" style="white-space: pre;" direction="ltr" dominant-baseline="text-before-edge">Yes</text></g><g stroke-linecap="round" transform="translate(35 1429) rotate(0 412 92)"><path d="M0 0 C0 0, 0 0, 0 0 M0 0 C0 0, 0 0, 0 0 M0.21 10.34 C1.18 9.78, 9.26 4.67, 11.71 -1.38 M1.5 12.64 C4.37 8.18, 7.65 2.58, 11.32 0.54 M-0.09 27 C5.28 15.89, 8.94 10.48, 17.98 -4 M0.94 23.96 C6.56 16.84, 13.53 9.41, 22.69 -0.34 M-3.37 32.9 C7.08 26.84, 12.62 16.27, 30.34 -3.52 M-0.45 37.43 C6.43 26.05, 15.24 18.7, 33.07 0.12 M-4.1 50.88 C19.9 26.16, 34.14 13.73, 45.59 1.65 M0.18 49.64 C8.7 38.09, 17.57 28.15, 43.93 -0.84 M3.86 61.41 C9.66 47.56, 21.38 33.81, 53.86 1.39 M0.32 59.59 C13.32 45.85, 28.64 29.42, 53.97 1.7 M-3.13 72.08 C20.25 45.21, 39.74 21.94, 61.89 -1.57 M-0.44 73.29 C17 54.15, 34.2 31.15, 63.87 -0.07 M-0.07 87.39 C28.41 50.42, 53.34 24.7, 75.98 1.46 M-0.54 84.1 C25.53 58.22, 51.12 27.86, 72.77 0.88 M-3.07 94.53 C24.63 75.12, 41.45 51.27, 85.05 2.04 M-0.63 96.88 C29.1 64.75, 58.52 30.61, 86.74 -2.17 M-3.64 109.3 C27.29 73.4, 59.75 47.1, 99.61 -0.35 M-0.45 108.56 C36.21 69.26, 73.28 25.17, 95.33 -2.12 M2.32 125.69 C34.08 86.48, 63.76 50.9, 102.77 2.66 M1.75 120.11 C24.27 94.41, 45.61 68.99, 108.01 1.42 M0.16 137.82 C31.05 98.5, 64.16 62.28, 112.54 -1.86 M0.36 133.05 C45.58 81.88, 90.19 28.33, 118.08 -1.58 M2.82 149.74 C44.18 97.09, 91.22 38.44, 127.55 -2.24 M2.17 145.7 C30.52 108.64, 63.69 72.3, 125.74 0.83 M1.02 160.88 C32.25 118.96, 61.46 81.67, 137.96 3.02 M-1.53 157.58 C48.82 107.49, 92.3 55.92, 138.56 -1.11 M-1.98 173.03 C45.95 113.66, 90.65 66.82, 150.94 -2.52 M-0.62 169.37 C42.4 123.49, 81.37 75.3, 147.36 0.56 M1.2 179.64 C57.57 114.75, 117.04 52.67, 158.79 -1.15 M-0.27 183.19 C42.62 133.79, 86.65 85.89, 159.88 1.65 M3.4 186.16 C65.71 117.77, 125.78 50.11, 166.5 2.38 M6.14 190.04 C63.46 121.75, 121.33 56.69, 169.1 0.34 M17.78 189.5 C72.44 127.32, 122 67.71, 183.12 -2.71 M15.82 189 C62.59 138.77, 109.01 86.46, 180.96 -0.48 M23.96 186.36 C79.74 129.22, 131.58 72.7, 188.93 -0.36 M26.84 189.87 C87.44 118.19, 150.6 45.58, 191.45 -0.22 M36.71 187.67 C67.85 145.91, 107.37 104.15, 199.83 0.88 M35.9 187.67 C79.27 137.56, 121.75 90.64, 200.21 -0.85 M47.63 186.31 C92.43 136.51, 143.59 77.56, 214.19 1.39 M46.65 187.85 C96.53 134.57, 142.77 78.32, 210.95 -0.86 M56.95 190.61 C101.19 140.86, 139.24 88.2, 225.19 -1.83 M56.95 189.59 C122.95 113.73, 189.12 39.11, 221.99 1.12 M66.21 185.96 C105.76 151.29, 144.48 107.62, 233.01 -1.2 M69.13 188.63 C111.53 138.57, 154.28 90.82, 233.29 -0.68 M77.42 187.87 C116.18 140.17, 161.75 95.01, 244.04 2.59 M80.57 189.94 C121.56 136.98, 166.3 86, 243.52 0.08 M92.28 190.56 C155.46 113.59, 216.7 46.17, 256.98 1.43 M90.67 187.7 C139.83 132.56, 188.48 74.54, 253.76 -1.45 M98.27 187.35 C154.85 130.53, 205.01 63.86, 262.05 0.2 M101.24 187.77 C152.5 133.47, 201.86 77.36, 264.67 1.12 M113.55 191.09 C146.11 150.37, 180.74 114.93, 272.78 -2 M110.35 187.68 C150.01 141.48, 193.02 93.77, 276.83 -1.06 M120.87 189.22 C161.44 149.49, 201.38 106.65, 286.08 2 M122.6 189.28 C183.36 121.41, 242.28 54.14, 287.97 0.12 M132 190.36 C185.76 133.38, 231.59 80.65, 294.43 2.15 M133.14 188.54 C168.98 149.5, 203.08 110.9, 296.55 -0.04 M141.28 185.89 C179.41 146.63, 215.94 108.53, 304.66 -1.87 M144.43 188.21 C203.63 119.88, 262.1 54.36, 308.8 0.11 M156.71 190.72 C213.19 111.02, 277.48 37.94, 317.58 0.15 M152.94 188.36 C205.28 132.7, 251.57 76.17, 319.44 -1.59 M162.67 188.87 C218.68 124.34, 274.16 58.52, 327.12 -2.87 M165.23 189.47 C203.2 145.55, 242.58 103.11, 328.48 -1.78 M173.84 191.02 C212.61 148.03, 251.98 105.81, 339.12 -3.34 M174.84 190.08 C221.82 136.8, 265.73 85.12, 338.33 -1.75 M184.85 186.62 C224.75 145.38, 257.9 102.67, 350.29 0.51 M184.88 189.8 C242.36 120.73, 303.22 52.56, 350.3 -0.57 M194.91 191.16 C241.89 132.9, 294.86 75.6, 363.03 2.38 M194.77 189.74 C249.78 125.23, 303.51 64.61, 361.1 1.52 M206.93 188.22 C269.23 112.09, 334.34 36.92, 367.67 -0.21 M207.16 188.79 C265.25 119.02, 326.52 48.94, 369.12 0.6 M220.28 189.05 C259.55 140.48, 302.47 89.61, 383.42 -1.59 M218.54 189.76 C268.18 134.8, 318.03 76.44, 380.69 -1.17 M229.86 187.69 C264.46 147.35, 300.98 105.75, 391.61 0.58 M229.42 189.17 C278.93 129.8, 325.78 72.46, 393.55 1.43 M238.45 187.9 C284.47 131.92, 336.59 77.33, 400.18 -0.44 M238.26 189.91 C286.33 135.14, 331.13 84.09, 403.77 -0.01 M249.29 190.92 C308.85 117.66, 365.1 52.96, 410.22 -0.03 M248.36 187.75 C291.13 138.1, 334.33 91.7, 412.66 1.47 M258.77 189.73 C289.8 148.72, 328.52 111.31, 421.64 -0.97 M258.51 187.3 C313.48 123.61, 370.98 58.4, 423.97 1.61 M268.64 189.49 C322.17 134.64, 371.98 74.89, 432.42 0.37 M269.89 188.49 C329 121.46, 388.2 54.17, 434.47 0.9 M278.72 188.75 C334.09 129.02, 387.25 67.7, 444.26 1.88 M279.97 189.45 C328.66 133.43, 375.99 81.02, 444.15 0.9 M292.55 186.82 C331.59 147.46, 373.19 100.68, 455.29 2.96 M292.74 189.4 C351.31 116.83, 415.2 48.22, 456.62 0.52 M303.56 191.07 C358.73 126.84, 413.09 65.35, 465.74 -1.11 M302.74 188.17 C345.46 140.48, 387.69 93.7, 466.51 -1.05 M313.81 191.66 C376.29 118.61, 432.75 53.81, 477.14 1.16 M311.81 189.14 C365.78 132.01, 417.97 71.93, 476.14 -1.55 M326.69 188.46 C371.13 132.95, 418.82 78.39, 484.99 -0.81 M323 188.95 C373.5 133.94, 420.21 78.89, 486.15 0.73 M332.98 185.37 C372.15 143.77, 406.35 104.64, 497.51 0.24 M334.41 186.96 C367.97 145.89, 402.92 103.73, 499.21 -0.03 M342.75 191.09 C384.61 144.97, 423.45 94.87, 508.71 -2.36 M346.14 188.08 C383.58 143.72, 422.24 100.21, 507.32 -1.23 M358.37 187.31 C399.09 135.57, 452.05 78.53, 517.16 -2.3 M354.19 189.27 C415.04 124.34, 473.78 54.38, 518.37 1.19 M367.2 188.29 C427.6 118.92, 487.79 50.2, 531.73 0.93 M367.15 188.99 C398.7 149.39, 433.61 109.83, 530.41 -0.73 M379.92 189.47 C419.01 136.52, 465.96 82.16, 538.07 2.88 M377.26 190.01 C420.8 141.26, 465.85 89.85, 541.86 -1.21 M389.92 188.55 C455.37 117.39, 521.42 42.45, 550.11 1.45 M386.26 189.98 C441.98 124.5, 500.62 56.35, 551.93 -0.77 M394.68 189.9 C459.94 116.53, 522.45 43.2, 563.45 -2.22 M398.64 187.78 C442.98 137.39, 489.38 81.43, 560.99 -0.1 M410.56 190.29 C451.33 140.51, 494.44 90.65, 574.21 -3.05 M408.33 187.66 C442.72 149.05, 479.5 108.34, 574.3 -0.46 M415.93 189.72 C452.94 149.58, 486.77 108.31, 584.02 3.11 M418.01 189.28 C451.79 151.26, 483.88 114.99, 582.12 -0.07 M427.98 186.48 C469.71 147.17, 508.03 103.18, 595.35 -2.32 M429.12 188.06 C464.1 150.37, 498.51 109.74, 592.16 -0.8 M443.17 191.04 C492.33 128.35, 546.87 66.05, 606.73 3.44 M438.96 187.81 C482.66 138.55, 523.68 90.11, 603.17 -0.81 M449.47 187.68 C501.41 124.71, 561.14 61.72, 614.58 -2.58 M450.94 190.55 C484.31 151.1, 518.38 109.25, 614.54 -1.19 M458.18 187.52 C496.54 151.02, 530.55 107.34, 624.77 -2.57 M461.88 189.56 C515.31 126.01, 567.23 66.33, 626.01 0.85 M470.49 190.18 C535.81 115.62, 598.68 41.81, 638.75 -2.51 M472.25 188.56 C517.81 134.41, 561.69 81.46, 634.85 -1.42 M483.15 191.13 C547.27 118.72, 613.1 44.24, 646.22 1.38 M483.29 188.27 C526.91 131.84, 576.75 77.49, 646.04 1.42 M494.24 189.03 C544.5 128.92, 600.8 67.79, 656.97 -2.76 M494.15 189.21 C546.59 125.44, 605.05 60.4, 656.34 -1.4 M502.3 186.53 C550.68 133.5, 591.47 85.41, 667.37 -2.33 M502.33 188.1 C556.26 127.82, 608.49 69.53, 667.81 1.26 M512.1 191.12 C558.11 138.6, 607.18 78.69, 679.19 1.31 M513.85 187.17 C575.24 121.37, 637.58 51.56, 678.37 -0.46 M527.22 189.8 C570.14 139.36, 616.87 86.84, 692.23 0.16 M524.09 187.28 C581.58 121.39, 641.31 54.65, 688.76 1.38 M536.25 189.07 C593.94 124.33, 657.61 52.42, 696.98 0.06 M534.5 187.5 C590.07 123.81, 649.25 57.81, 699.69 -0.56 M544.57 189.67 C610.38 120.42, 670.93 46.75, 713 1.85 M546.51 187.94 C582.92 139.52, 625.95 92, 708.96 0.11 M553.98 187.32 C618.42 118.06, 682.45 44.37, 722.75 2.23 M555.37 189.37 C609.09 128.98, 661.38 66.26, 721.7 0.21 M568.38 186.7 C611.5 136.88, 657.8 84.27, 729.61 1.07 M566.91 189.53 C606.81 142.31, 644.86 97.88, 731.15 -0.34 M579.93 189.1 C642.82 119.7, 709.72 40.74, 743.97 2.25 M578.36 189.27 C638.13 117, 699.07 47.42, 741.95 1.1 M587.78 186.77 C637.83 129.53, 685.09 79.93, 749.77 1.44 M588.53 188.86 C624.94 147.18, 662.54 104.45, 754.19 -0.39 M597.3 189.86 C654.22 125.29, 704.42 63.55, 762.43 -0.11 M598.25 187.59 C663.47 115.53, 724.87 43.43, 763.87 -1.28 M612.71 188 C656.29 135.72, 704.26 80.27, 775.86 -1.17 M610.75 189.88 C667.7 128.41, 718.24 65.74, 773.05 0.13 M622.53 191.12 C677.58 117.74, 735.48 51.6, 787.67 0.2 M621.62 189.33 C674.35 124.73, 730.26 61.63, 783.77 0.08 M627.56 188.04 C673.05 148.24, 713.3 95.68, 798.44 0.97 M631.65 188.12 C680.72 132.07, 733.4 72.47, 795.16 -1.27 M642.59 190.95 C694.49 124.25, 756.17 59.7, 804.32 0.48 M640.05 188.06 C707.42 115.27, 769.62 42.27, 807.13 -0.25 M652.56 187.57 C715.45 123.31, 776.91 50.38, 815.17 2.03 M650.7 190.49 C688.03 151.19, 719.79 111.93, 816.87 0.84 M663.29 188.4 C724.12 112.83, 790.8 46.06, 823.04 -1.68 M662.15 190.02 C722.51 119.39, 783.93 49.02, 824.46 0.93 M674.61 188.31 C703.42 153.19, 733.32 113.43, 828.24 12.77 M674.6 190.55 C709 149.3, 745.03 111.82, 824.06 14.03 M685.94 186.98 C723.38 142.85, 764.36 97.23, 824.95 23.36 M683.49 188.19 C732.58 127.51, 783.59 69.5, 824.18 24.48 M695.53 190.34 C727.63 156.83, 764.38 117.6, 827.33 34.44 M693.41 187.78 C732.25 152.75, 764.39 112.82, 824.15 38.78 M706.19 189.61 C728.75 161.9, 752.98 131.03, 826 52.56 M705.78 189.54 C737.11 154.73, 764.76 124.55, 824.42 49.34 M718.35 191.89 C755.85 143.43, 800.44 95.49, 822.32 60.9 M717.55 190.25 C740.28 160.26, 767.57 135.12, 825.35 60.52 M727.7 190.46 C759.53 144.76, 797.67 104.34, 827.67 78.64 M726.16 187.6 C758.5 149.42, 794.4 109.79, 823.82 73.94 M740.53 189.52 C772.21 152.34, 807.44 110.75, 824.99 86.64 M737.99 187.58 C760.92 158.46, 785.59 130.15, 824.1 88.74 M748.72 189.18 C780.86 153.41, 807.46 120.63, 827.87 96.91 M748.92 187.97 C769.36 168.09, 786.54 145.55, 826.48 97.65 M760.74 186.44 C777.62 160.6, 802.46 143.34, 826.11 110.61 M756.72 189.85 C769.28 174.64, 783.23 156.37, 826.33 111.42 M768.67 192.22 C778.84 175.89, 793.21 155.44, 824.12 119.82 M769.66 189.11 C790.8 164.8, 810.89 141.89, 825.98 123.08 M779.16 192.34 C795.57 171.81, 808.41 159.45, 823.27 133.26 M778.95 187.92 C788.42 176.22, 802.54 161.54, 826.56 136.25 M788.48 188.53 C800.63 179.72, 809.69 168.23, 823.46 150.31 M791.24 190.25 C804.86 174.29, 816.06 160.96, 827.13 149.57 M797.48 191.42 C806.42 183.44, 810.83 172.17, 826.23 158.52 M801.16 189.37 C809.28 179.57, 813.45 174.48, 825.21 160.72 M810.59 189.55 C814.28 181.61, 818.8 180.35, 828.37 171.57 M811.76 187.34 C814.01 182.79, 819.93 177.98, 823.96 170.94" stroke="#ffec99" stroke-width="1" fill="none"></path><path d="M0.24 1.28 C204.31 1.11, 404.58 1.37, 823.4 0.9 M-0.22 0.09 C228.01 -5.12, 457.53 -5.91, 824.09 0.62 M825.79 0.12 C819.15 57.82, 823.36 121.98, 824.41 180.68 M825.09 -0.68 C822.24 60.21, 821.28 122.91, 824.01 182.01 M823.04 183.09 C532.67 181.3, 238.45 182.76, -1.25 183.9 M824.69 184.09 C551.28 183.7, 279.56 184.2, 0.37 184.33 M-3.71 181.3 C0.68 117.38, -1.28 59.53, 1.48 0.84 M1.3 183.87 C3.31 144.88, 2.13 107.71, 0.5 0.63" stroke="#1e1e1e" stroke-width="2" fill="none"></path></g><g transform="translate(229.34375 1476) rotate(0 217.65625 45)"><text x="217.65625" y="0" font-family="Virgil, Segoe UI Emoji" font-size="36px" fill="#1e1e1e" text-anchor="middle" style="white-space: pre;" direction="ltr" dominant-baseline="text-before-edge">Save new cursor position</text><text x="217.65625" y="45" font-family="Virgil, Segoe UI Emoji" font-size="36px" fill="#1e1e1e" text-anchor="middle" style="white-space: pre;" direction="ltr" dominant-baseline="text-before-edge"> in metastore</text></g><g stroke-linecap="round" transform="translate(903 877) rotate(0 155 135)"><path d="M28.99 54.64 C35.77 42.6, 50.18 33.04, 62.75 25.2 C75.31 17.37, 88.92 11.49, 104.4 7.62 C119.88 3.75, 139.39 1.88, 155.63 1.97 C171.87 2.07, 186.77 4.44, 201.86 8.18 C216.96 11.91, 233.28 16.82, 246.21 24.39 C259.13 31.95, 270.15 41.94, 279.43 53.58 C288.7 65.22, 296.89 80.65, 301.86 94.23 C306.83 107.81, 309.15 121.78, 309.23 135.08 C309.32 148.38, 307.12 161.04, 302.39 174.02 C297.67 187, 289.88 201.18, 280.87 212.98 C271.86 224.78, 260.83 236.28, 248.32 244.82 C235.8 253.36, 221.02 259.95, 205.79 264.21 C190.56 268.47, 173.06 270.78, 156.95 270.4 C140.83 270.01, 124.21 266.46, 109.09 261.91 C93.98 257.36, 79.4 250.99, 66.26 243.11 C53.12 235.24, 39.68 225.88, 30.24 214.66 C20.81 203.44, 14.51 189.14, 9.65 175.79 C4.8 162.44, 1.64 148.2, 1.13 134.57 C0.62 120.93, -7.95 113.83, 6.59 94 C21.14 74.17, 62.86 30.79, 88.4 15.59 C113.95 0.38, 159.29 1.03, 159.87 2.76 M284.14 56.19 C294.33 65.79, 295.92 80.78, 300.66 94.52 C305.4 108.26, 312.15 124.41, 312.57 138.64 C312.99 152.87, 309.14 166.64, 303.2 179.92 C297.27 193.19, 286.66 207.13, 276.94 218.31 C267.23 229.49, 257.98 238.88, 244.9 247 C231.81 255.11, 214.48 262.89, 198.43 267.01 C182.37 271.14, 164.08 272.68, 148.55 271.74 C133.03 270.8, 119.57 265.8, 105.3 261.38 C91.04 256.95, 75.95 253.14, 62.98 245.2 C50.01 237.27, 36.71 226.14, 27.48 213.77 C18.25 201.4, 12.1 184.94, 7.61 170.98 C3.12 157.02, 0.58 143.3, 0.52 130.01 C0.47 116.72, 2.28 103.56, 7.28 91.23 C12.28 78.9, 20.68 67.45, 30.52 56.02 C40.36 44.59, 53.38 30.96, 66.3 22.65 C79.23 14.34, 93 10.21, 108.08 6.15 C123.16 2.09, 140.29 -1.63, 156.77 -1.71 C173.25 -1.78, 191.24 0.74, 206.95 5.68 C222.66 10.61, 238.27 18.86, 251.03 27.9 C263.79 36.94, 278.42 54.91, 283.5 59.91 C288.57 64.9, 283.98 57.17, 281.47 57.88" stroke="#1e1e1e" stroke-width="2" fill="none"></path></g><g transform="translate(954.8046989160866 944.5405845398163) rotate(0 103.09375 67.5)"><text x="103.09375" y="0" font-family="Virgil, Segoe UI Emoji" font-size="36px" fill="#1e1e1e" text-anchor="middle" style="white-space: pre;" direction="ltr" dominant-baseline="text-before-edge">Begin index-</text><text x="103.09375" y="45" font-family="Virgil, Segoe UI Emoji" font-size="36px" fill="#1e1e1e" text-anchor="middle" style="white-space: pre;" direction="ltr" dominant-baseline="text-before-edge">recreate </text><text x="103.09375" y="90" font-family="Virgil, Segoe UI Emoji" font-size="36px" fill="#1e1e1e" text-anchor="middle" style="white-space: pre;" direction="ltr" dominant-baseline="text-before-edge">stage</text></g></svg>